/* XPM */
static char *result[] = {
/* columns rows colors chars-per-pixel */
"50 50 11 1 ",
"  c black",
". c gray49",
"X c #868686",
"o c #979797",
"O c gray64",
"+ c #F3F3F3",
"@ c gray98",
"# c #FBFBFB",
"$ c #FEFEFE",
"% c white",
"& c None",
/* pixels */
"&&&&&&&&&&&&&&&&&&&&&&&&&&&&&&%%&&&&&&&&&&&&&&&&&&",
"&&&&&&&&&&&&&&&&&&%%%&&&&&&&&%%&&&&&&&&&&&&&&&&&&&",
"&&&&&&&&&&&&&&%%%%%%%%%%%%&&&&&&&&&&&&&&&&&&&&&&&&",
"&&&&&&&&&&&&&&&%&&&&&&&&%%%%&&&&&&&&&&&&&&&&&&&&&&",
"&&&&&&&&&&&&&&&&&&&&&&&&&&%%%%&&&&&&&&&&&&&&&&&&&&",
"&&&&&&&&&&&&&&&&&&&&&&&&&&&&%$%&&&&&&&&%%&&&&&&&&&",
"&&&&&&&&&&&&&&&&&&&&&&&&&&&&&&%%&&&&&&&&%%&&&&&&&&",
"&&&&&&&&&&&&&&&&&&&&&&&&&&&&&&&%%&&&&&&&%%&&&&&&&&",
"&&&&&&&&&&&&&&&&&&&&&&&&&&&&&&&&%$&&&&&&&%$&&&&&&&",
"&&&&&&&&&&&&&&%%%%%$%&&&&&&&&&&&&%&&&&&&&&%&&&&&&&",
"&&&&&&&&&&&%$%%%%%$%%%%%&&&&&&&&&%%&&&&&&&%$&&&&&&",
"&&&&&&&&%%%$&&&&&&&&&&&%%%&&&&%%&&%%&&&&&&&%&&&&&&",
"&&&&&&&%%%&&&&&&&&&&&&&&&%%&&&%$&&%%&&&&&&&%$&&&&&",
"&&&&&&%$&&&&&&&&&&&&&&%&&&%%&&%%&&&%&&&&&&&%%&&&&&",
"&&&&&%%&&&&&&&&&&&&&&&&&&&&%%&&&&&&%%&&&&&&%%&&&&&",
"&&&&%$&&&&&&&&&&&&&&&&&&&&&&%%&&&&&$%&&&&&&%%&&&&&",
"&&&%%&&&&&&&&&&&&%%%%$%%&&&&&%%&&&&&%&&&&&&&%&&&&&",
"&&%%&&&&%&&&&&%%%%%$%$%%%%&&&%%&&&&&%&&&&&&&%&&&&&",
"&&%&&&&&&&&&%%%&&&&&&&%$%%$%&&%&&&&&%&&&%&&&%&&&&&",
"&%$&&&&&&&&%%%&&&&&&%%%%%%$%%&%%&&&&%&&&&&&%%&&&&&",
"&%&&&&&&&&%%&&&&&&&%%%%%%%%$%%$%&&&%%&&&&&&%%&&&&&",
"%%&&&&&&&$%&&&&&&%%%%$%$#@$%$%%%&&&%$&&&&&&%%&&&&&",
"%%&&&&&&%%&&&&&&%%$%$%$%%%%$%$%%&&&%%&&&&&&$&&&&&&",
"&&&&&&&&%&&&&&&&%%$%%$%%Oo#%$%%%&&&%&&&&&&%%&&&&&&",
"&&&&&&&$%&&&&&&%$&%%%#%O  X%#$$%&&%%&&&&&&%%&&&&&&",
"&&&&&&&%&&&&&&%%&&%%$@%o  .%#$%%&%%&&&&&&%%&&&&&&&",
"&&&&&&%$&&&&&&%%&&%%$$%#X.+%$%%%&%%&&&&&&%$&&&&&&&",
"&&&&&&%&&&&&&&%&&&%%%%$%%%%$%$%$%%&&&&&&$%&&&&&&&%",
"&&&&&%%&&&&&&%%&&&%%%$%$##$%$%$$$&&&&&&%%&&&&&&&%%",
"&&&&&%%&&%&&&%%&&&%%%%$%$$%$%%%%&&&&&&%%&&&&&&&&%%",
"&&&&&%%&&&&&&%&&&&$$&%%%$%%%%%&&&&&&&%%&&&&&&&&%%&",
"&&&&&%%&&&&&&%&&&&&%&&%%%%%$&&&&&&&%%%&&&&&&&&&%%&",
"&&&&&%%&&&&&&%&&&&&%%&&&%%%%&%%%%%%%&&&&%%&&&&%%&&",
"&&&&&%%&&&&&&%%&&&&%%&&&&&$%%%%%%%&&&&&&$%&&&%$&&&",
"&&&&&%$&&&&&&%%&&&&&%%&&&&&&&&&&&&&&&&&&%%&&%%%&&&",
"&&&&&%$&&&&&&$%&&&&&&%%&&&&&&&&&&&&&&&&&&&&$%%&&&&",
"&&&&&%%&&&&&&&%&&&&&&&%%&&&&&&&&&&&&&&&&&&%%%&&&&&",
"&&&&&&%&&&&&&&$%&&&&&&&%$&&&&&&&&&&&&&&&%%%&&&&&&&",
"&&&&&&%%&&&&&&%%&&&&&&&&%%%&&&&&&&&&&&%%%%&&&&&&&&",
"&&&&&&%%&&&&&&&%%&&&&&&&&&%%%%%%%%%%%$%%&&&&&&&&&&",
"&&&&&&&%&&&&&&&&%&&&&&&&&&&&%%%%%%%%%&&&&&&&&&&&&&",
"&&&&&&&%%&&&&&&&$%&&&&&&&&&&&&&&&&&&&&&&&&&&&&&&&&",
"&&&&&&&&%%&&&&&&&%%&&&&&&&&&&&&&&&&&&&&&&&&&&&&&&&",
"&&&&&&&&%%&&&&&&&&$%&&&%&&&&&&&&&&&&&&&&&&&&&&&&&&",
"&&&&&&&&&%%&&&&&&&&%%%&&&&&&&&&&&&&&&&&&&&&&&&&&&&",
"&&&&&&&&&&%&&&&&&&&&%%%&&&&&&&&&&&&&&&&&&&&&&&&&&&",
"&&&&&&&&&&&&&&&&&&&&&&%%%%&&&&&&&&&&&&&&&&&&&&&&&&",
"&&&&&&&&&&&&&&&&&&&&&&&&%%%%%%$%%%%$&&&&&&&&&&&&&&",
"&&&&&&&&&&&&&&&&&&&&&&&&&&&&%%%%%&&&&&&&&&&&&&&&&&",
"&&&&&&&&&&&&&&&&&&&%%%&&&&&&&&&&&&&&&&&&&&&&&&&&&&"
};
