/* XPM */
static char *result[] = {
/* columns rows colors chars-per-pixel */
"50 50 19 1 ",
"  c black",
". c #111111",
"X c #282828",
"o c gray22",
"O c #3E3E3E",
"+ c gray60",
"@ c #A0A0A0",
"# c gray70",
"$ c gray87",
"% c gray88",
"& c #E7E7E7",
"* c gray94",
"= c #F6F6F6",
"- c #FBFBFB",
"; c gray99",
": c #FDFDFD",
"> c #FEFEFE",
", c white",
"< c None",
/* pixels */
"<<<<<<<<<<<<<<<<<<<<<<<<<<<<<<<<<<<<<<<<<<<<<<<<<<",
"<<<<<<<<<<<<<<<<<<<<<<<<<<<<<<<<<,,,<<<<<<<<<<<<<<",
"<<<<<<<<<<<<<<,,,>>,,,<<<<<<<<<<<<<,,<<<<<<<<<<<<<",
"<<<<<<<<<<<,,,,,>,,,,>,,,<<<<<<<<<<<>,<<<<<<<<<<<<",
"<<<<<<<<<,,,,<<<<<<<<<<,,,,<<<<<<<<<<,,<<<<<<<<<<<",
"<<<<<<<<<,,<<<<<<<<<<<<<<<,,,<<<<<<<<<,,<<<<<<<<<<",
"<<<<<<<<<<<<<<<<<<,<<<<<<<<<,,<<<<<<<<<,,<<<<<<<<<",
"<<<<<<<<<<<<<<<<<<,<<<<<<<<<<>,<<<<<<<<<><<<<<<<<<",
"<<<<<<<<<<<<<<<<<<<<<<<<<<<<<<>><<<<<<<<,,<<<<<<<<",
"<<<<<<<<<<<<<<<<<<<<<<<<<<<<<<<,,<<<<<<<<,<<<<<,<<",
"<<<<<<<<<<<<<<<,,,>,,<<<<<<<<<<<,,<<<<<<<,,<<,>,>,",
"<<<<<<<<<<<,>,,,,,,,,,,,<<<<<<<<,,<<<<<<<,,<<,>,,,",
"<<<<<<<<<,,,,<<<<<<<<<,,,,<<<<<<<,,<<<<<<<,<<<<<<<",
"<<<<<<<<,,,<<<<<<<<<<<<<,,><<<<,<,,<<<<<<<,<<<<<<<",
"<<<<<<,,,<<<<<<<<<<<<<<<<<,,<<<,<<,<<<<<<<,,<<<<<<",
"<<<<<,,<<<<<<<<<<<<<<<<<<<<>,<<<<<,,<<<<<<,,<<<<<<",
"<<<<,,<<<<,><<<<<<<<,,,,<<<<,,<<<<,,<<<<<<,,<<<<<<",
"<<<,,<<<<<<<<<<<,,,,,>,,,>,<<,,<<<,,<<<<<<,,<<<<<<",
"<<<,,<<<<<<<<<,,,><<<,,,,,,,,>><<<,,<<,<<<,<<<<<<<",
"<<>,<<<<<<<<<,,<<<<<>,,,,,,,,,,<<<,,<,,,<<,<<<<<<<",
"<<,<<<<<<<<<,,<<<<<,,>>,::>,>,,><<,,<<,,<,,<<<<<<,",
"<,,<<<<<<<<,,<<<<<,,>>,:,,:>,>,,<<,,<<<<<,,<<<<<<,",
"<,<<<<<<<<,,<<<<<,,>,,:,*%,>>,>,<<><<<<<<,<<<<<<<,",
",,<<<<<<<,,<<<<<,,>,,:,$X @,;>,,<,,<<<<<,,<<<<<<<,",
">,<<<<<<<,<<<<<<,,,,,-,+  O,:>,,,,<<<<<<,,<<<<<<<,",
",,<<<<<<>,<<<<<,,<,,,:,&o.#,;>,>,,<<<<<,,<<<<<<<,,",
",<<<<<<<,<<<<<<,,<,,,,>,;=,>,,>,,<<<<<,,<<<<<<<<,,",
",<<<<<<,,<<<<<<,<<,,,>,:,,:,>>,,<<<<<,,,<<<<<<<<><",
",<<<<<<,,<<<<<<,<<<,,>>,>>>,>,,,<<<<,,,<<<<<<<<>><",
"<<<<<<<,,<<<<<,,<<<,,,,,,,,,,,<<<<<,,,<<<<<<<<,,<<",
"<<<<<<<,<<<<<<,,<<<,,,,,,,>,,<<<,>,,<<<<,,<<<<,,<<",
"<<<<<<<,<<<<<<,,<<<<,,<,>,,,,,,,,,<<<<<<<<<<<,,<<<",
"<<<<<<<,<<<<<<<,<<<<<,<<<<<<,,<<<<<<<<<<<<<<,><<<<",
"<<<<<<<,<<<<<<<,<<<<<,,<<<<<<<<<<<<<<<<<<<<,,<<<<<",
"<<<<<<<,<<<<<<<,><<<<<,,,<<<<<<<<<<<<<<<<,,,<<<<<<",
"<<<<<<<,,<<<<<<,,<<<<<<,,,<<<<<<<<<<<<<<,,,<<<<<<<",
"<<<<<<<,,<,,<<<<,,<<<<<<<,,,<<<<<<<<<,,,,<<<<<<<<<",
"<<<<<<<,,<<<<<<<,,<<<<<<<<<,,,,,,>,,,>,<<<<<<<<<<<",
"<<<,,<<<,<<<<<<<<,,<<<<<<<<<<<,>,,,<<<<<<<<<<<<<<<",
"<,,,,,<<,,<<<<<<<<,,<<<<<<<<<<<<<<<<<<<<<<<<<<<<<<",
"<<<,,<<<<,<<<<<<<<,,,<<<<<<<<<,<<<<<<<<<<<<<<<<<<<",
"<<<<<<<<<>,<<<<<<<<,,,<<<<<<<,,,<<<<<<<<<<<<<<<<<<",
"<<<<<<<<<<,,<<<<<<<<,,,<<<<<<<,,<<<<<<<<<<<<<<<<<<",
"<<<<<<<<<<,,<<<<<<<<<<>,,<<<<<<<<<<<<<<<,><<<<<<<<",
"<<<<<<<<<<<,,<<<<<<<<<<,,,,<<<<<<<<<<,,,,<<<<<<<<<",
"<<<<<<<<<<<<,,<<<<<<<<<<<>,,,>,,,,,,,,,<<<<<<<<<<<",
"<<<<<<<<<<<<<>,,<<<<<<<<<<<<<,,,,,,,<<<<<<<<<<<<<<",
"<<<<<<<<<<<<<<<,,<<<<<<<<<<<<<<<<<<<<<<<<<<<<<<<<<",
"<<<<<<<<<<<<<<<<<<<<<<<<<<<<<<<<<<<<<<<<<<<<<<<<<<",
"<<<<<<<<<<<<<<<<<<<<<<<<<<<<<<<<<<<<<<<<<<<<<<<<<<"
};
