/* XPM */
static char *result[] = {
/* columns rows colors chars-per-pixel */
"50 50 19 1 ",
"  c black",
". c gray9",
"X c #222222",
"o c #3E3E3E",
"O c gray29",
"+ c #8E8E8E",
"@ c #9F9F9F",
"# c #B4B4B4",
"$ c gray83",
"% c gray86",
"& c gray92",
"* c #F1F1F1",
"= c #F8F8F8",
"- c #FBFBFB",
"; c gray99",
": c #FDFDFD",
"> c #FEFEFE",
", c white",
"< c None",
/* pixels */
"<<<<<<<<<<<<<<<<<<<<<<<<<<<<>,,,<<<<<<<<<<<<<<<<<<",
"<<<<<<<<<<<<<<<<<<<<<<<<<<<<<<,,,<<<<<<<<<<<<<<<<<",
"<<<<<<<<<<<<<<<<<<<<<<<<<<<<<<<<,,,<<<<<<<<<<<<<<<",
"<<<<<<<<<<<<<<<<<<<<<<<<<<<<<<<<<,,,<<<<<<<<<<<<<<",
"<<<<<<<<<<<<<,,,,,,,,<<<<<<<<<<<<<<,,<<<<<<<<<<<<<",
"<<<<<<<<<<,,,,,,,,,,,,,,<<<<<<<<<<<<,,<<<<<<<<<<<<",
"<<<<<<<<,,,,<<<<<<<<<<,,,,<<<<<<<<<<,><<<<<<<<<<<<",
"<<<<<<<,,,<<<<<<<<<<<<<<<,,,<<<<,,<<<,,<<<<<<<<<<<",
"<<<<<<,,<<<<<<<<<<<<,<<<<<<,,<<<<<<<<<,<<<<<<<<<<<",
"<<<<,,,<<<<<<<<<<<<<,<<<<<<<,,<<<<<<<<,><<<<<<<<<<",
"<<<<,,<<<<<<<<<<<<<<<<<<<<<<<,,<<<<<<<<,<<<<<<<<<<",
"<<<<<<<<<<<<<<<<<<<<<<<<<<<<<<,,<<<<<<<,,<<<<<<<<<",
"<<<<<<<<<<<<<<<,,,,,,<<<<<<<<<<,,<<<<<<,,<<<<<<<<<",
"<<<<<<<<<<<<,,,,,,,,,,,,<<<<<<<,,<<<<<<<,<<<<<<<<<",
"<<<<<<<<<<,,,,<<<<<<<<<>,,<<<<<<,<<<<<<<,<<<<<<,,<",
"<<<<<<<<<,,,<<<<<<<<<<<<<,,<<<<<,,<<<<<<,<<<<<<,,<",
"<<<<<<<,,,<<<<<<<<<<<<<<<<,,,<<<,,<<<<<<,<<<<<<<,<",
"<<<<<<,,,<<<<<<<<<<<<>,>,,<>,<<<<,<<<<<<,<<<<<<<,<",
"<<<<<,,<<<<<<<<<<>,,,,,,,,,,,,<<<,<<<<<<,<<<<<<<,<",
",<<<<,,<<<<<<<<<>,,<,>,,,,,,>,,<<,<<<<<<,<<<<<<<,<",
",<<<,,<<<<<<<<,,,<<,,>>,>>>,>,,<<,<<<<<,,<<<<<<<,<",
",<<,,<<<<<<<<,,,<<<,>>,:>,:,>>,,<><<>,<,,<<<<<<<,<",
"<<<,,<,<<<<<,,<<<<,,,,>,,=,>,,,,,,<<<<<,<<<<<<<,,<",
"<<,,<<,<<<<<,<<<<,,,,>,*O.#,;>,,,,<<<<,,<<<<<<<,,<",
"<<>,<<<<<<<,,<<<<>,,,-,@  o,:>,,,,<<<<,,<<<<<<<><<",
"<<,<<<<<<<,,<<<<<,,,>:,%X +,;>,,,<<<<>,<<<<<<<,,<<",
"<,,<<<<<<<,,<<<<>,>,>,:,&$,,>,>,,<<<,,<<<<<<<<,,<<",
"<,,<<<<<<<,<<<<<>,<>,>,:,,>>,>,,<<<>,<<<<<<<<,,<<<",
"<>,<<<<<<,,<<<<<>,<>,>>,::>,>,,<<<>,<<<<<<<<<,,<<<",
"<,,<<<<<<,,<<<<<,,<<,,,,,,,>>,,<,,><<<<<<<<<,,<<<,",
"<,,<<<<<<,,<<<<<,,<<,,,,,,,,,,,,,<<<<,,<<<<,,<<<<,",
"<,><<<<<<,,<<<<<,,<<<>,>,>,,>,,<<<<<<,,<<<,,<<<<<,",
"<,><<<<<<,,<<<<<,><<<<,,<<<<<<<<<<<<<<<<<>,<<<<<<<",
"<>,<<<<<<,,<<<<<<,<<<<<,,<<<<<<<<<<<<<<,,,<<<<<<<<",
"<<,<<<<<<,,<<<<<<,,<<<<<,,,<<<<<<<<<<,,,,<<<<<<<<<",
"<<<<<<<<<,><<<<<<>,<<<<<<<,,,,,,,,,,,>,<<<<<<<<<<<",
"<<<<<<<<<,,<<<<<<<,,<<<<<<<<,,>,,,,><<<<<<<<<<<<<<",
"<<<<<<<<<<,<<<<<<<,,<<<<<<<<<<<<<<<<<<<<<<<<<<<<<<",
"<<<<<<<<<<>,<<<<<<<,,<<<<<<<<<<<<<<<<<<<<<<<<<<<<<",
"<<<<<<<<<<,,<<<<<<<<,,<<<<<<<<<<<<<<<<<<<<<<,,<<<<",
"<<<<<<<<<<<,,<<<,,<<<,,,<<<<<<<,,<<<<<<<<<<,,<<<<<",
"<<<<<<<<<<<,,<<<,,<<<<,,,<<<<<<<<<<<<<<<<,,,<<<<<<",
"<<<<<<<<<<<<>><<<<<<<<<<>,,<<<<<<<<<<<<>,,,<<<<<<<",
"<<<<<<<<<<<<<,,<<<<<<<<<<<,,,,,,,,,,,,,,,<<<<<<<<<",
"<<<<<<<<<<<<<,,,<<<<<<<<<<<<,,>,,,,,,,<<<<<<<<<<<<",
"<<<<<<<<<<<<<<,,,<<<<<<<<<<<<<<<<<<<<<<<<<<<<<<<<<",
"<<<<<<<<<<<<<<<<,,<<<<<<<<<<<<<<<<<<<<<<<<<<<<<<<<",
"<<<<<<<<<<<<<<<<<>,,<<<<<<<<<<<<<<<<<<<<<<<<<<<<<<",
"<<<<<<<<<<<<<<<<<<,,,,<<<<<<<<<<<<<<<<<<<<<<<<<<<<",
"<<<<<<<<<<<<<<<<<<<<<,,<<<<<<<<<<<<<<<<<<<<<<<<<<<"
};
