/* XPM */
static char *result[] = {
/* columns rows colors chars-per-pixel */
"50 50 19 1 ",
"  c black",
". c #070707",
"X c gray25",
"o c #565656",
"O c gray36",
"+ c #898989",
"@ c #929292",
"# c gray73",
"$ c gray75",
"% c #CDCDCD",
"& c gray83",
"* c gray93",
"= c gray98",
"- c #FBFBFB",
"; c gray99",
": c #FDFDFD",
"> c #FEFEFE",
", c white",
"< c None",
/* pixels */
"<<<<<<<<<<<<<<<<<<<<<,,>,,,,<<<<<<<<<<<<<<<<<<<<<<",
"<<<<<<<<<,,<<<<<<<<<<<<<<<,,,,<<<<<<<<<<<<<<<<<<<<",
"<<<<<<<<<,,<<<<<<<<<<<<<<<<<,,,<<<<<<<<<<<<<<<<<<<",
"<<<<<<<<<,,,<<<<<<<<<<<<<<<<<<,,,<<<<<<<<<<<<<<<<<",
"<<<<<<<<<,,<<<<<<<<<<<<<<<<<<<<<,><<<<<<<<<<<<<<<<",
"<<<<<<<<<<<<<<<<<<<<<<<<<<<<<<<<<,,<<<<<<<<<<<<<<<",
"<<<<<<<<<<<<<<,,,,,,<<<<<<<<<<<<<<>,<<<<<<<<<<<<<<",
"<<<<<<<<<<,>,,,,>,,,,,,<<<<<<<<<<<,,<<<<<<<<<<<<<<",
"<<<<<<<<,,,,<<<<<<<<<,>,,,<<<<<<<<<>,<<<<<<<,<<<<<",
"<<<<<<<,,,<<<<<<<<<<<<<<,,,<<<<<<<<<,<<<<<<<,,<<<<",
"<<<<<,,,<<<<,,<<<<<<<<<<<<,,<<<<,,<<,,<<<<<<,,<<<<",
"<<<<,,,<<<<<<<<<<<<<<<<<<<<,,<<<<<<<<,<<<<<<<,<<<<",
"<<<,,<<<<<<<<<<<<<<<<<<<<<<<,,<<<<<<<,,<<<<<<,,<<<",
"<<,,,<<<<<<<<<<<<<<<<<<<<<<<<>,<<<<<<,,<<<<<<,,<<<",
"<<,><<<<<<<<<<<,,,,,,,,<<<<<<<,,<<<<<,,<<<<<<<,<<<",
"<,,<<<<<<<<<<,,,>,,,,>,,,<<<<<>,<<<<<<,<<<<<<<,<<<",
"<<<<<<<<<<<,>,<<<<<<<<<<,,,<<<<,<<<<<<,<<<<<<<,<<<",
"<<<<<<<<<<,,<<<<<<<<<<<<,,,><<<,><<<<<,<<<<<<<,,<<",
"<<<<<<<<,,,<<<<<<<<<,,,,,,,,,<<,><<<<<,<<<,<<<,<<<",
"<<<<<<<,,,<<<<<<<<,,,,,,,,,>,,<<,<<<<<,<<<<<<<,<<<",
"<<<<<<<,,<<<<<<<<,,>,>>,>>,,>,,<,<<<<,,<<<<<<<><<<",
"<<<<<<,,<<<<<<<,,,<,,>,::>:,>>,,,<<<<>,<<<<<<,,<<<",
"<<<<<,,<<<<<<<,,,<,,>,>,,,,:,,,,><<<<,<<<<<<<,,<<<",
"<<<<<,<<<<<<<<,,<<,,,:,*oX&,:>,,><<<,,<<<<<<<,,<<<",
"<<<<,,<<<<<<<,,<<<,,>=,+  O,->,,,<<<,,<<<<<<,,<<<<",
"<<<<,,<<<<<<,,<<<,,,,;,$. @,;>,,,<<>,<<<<<<<,,<<<<",
"<<<,,<<<<<<<,,<<<,,,,,:,%#,,>,,,<<>,<<<<<<<,,<<<<<",
"<<<,,<<<<<<<,<<<<>>,,>,:,,>>,>,,<,,<<<<<<<<,,<<<<<",
"<<<,,<<<<<<,,<<<<,,,,>,,;;>,>,>,>,<<<<<<<<,,<<<<<<",
"<<<,<<<,,<<>><<<<,,<,,>,,>,,,,,,><<<<<<<<,,<<<<<<<",
"<<<><<,,,<<,,<<<<,,<,,,,,,,,,,,<<<<,<<<<>,<<<<<<<<",
"<<<,<<<,<<<,<<<<<,,<<,,,,>,,<<<<<<<,<<<,,<<<<<<<<<",
"<<<,<<<<<<<,<<<<<<,<<<<,,,<<<<<<<<<<<,,,<<<<<<<<<<",
"<<<,<<<<<<<,,<<<<<,,<<<<>,,,<<<<<<,,,,,<<<<<<<<<><",
"<<<,,<<<<<<>,<<<<<,,<<<<<<,,,,,,,,,,<<<<<<<<<<<,,<",
"<<<,,<<<<<<,,<<<<<<,,<<<<<<<<<<,<<<<<<<<<<<<<<,,<<",
"<<<,,<<<<<<,,<<<<<<<,,<<<<<<<<<<<<<<<<<<<<<<<>,<<<",
"<<<<,<<<<<<<,<<<<<<<,,,<<<<<<,,<<<<<<<<<<<<<,,<<<<",
"<<<<,,<<<<<<,,<<<<<<<,,,<<<<,,,<<<<<<<<<<<<,,<<<<<",
"<<<<,,<<<<<<<,<<<<<<<<,,,<<<<>,<<<<<<<<<<,,,<<<<<<",
"<<<<<,,<<<<<<>,<<<,<<<<<,,><<<<<<<<<<<<,,,,<<<<<<<",
"<<<<<<<<<<<<<<,<<<<<<<<<<<,,,,,,<<,,,,,,,<<<<<<<<<",
"<<<<<<<<<<<<<<,,<<<<<<<<<<<<,>>,,,,,,,<<<<<<<<<<<<",
"<<<<<<<<<<<<<<<,,<<<<<<<<<<<<<<<<<<<<<<<<<<<<<<<<<",
"<<<<<<<<<<<<<<<<>><<<<<<<<<<<<<<<<<<<<<<<<<<<<<<<<",
"<<<<<<<<<<<<<<<<<>,<<<<<<<<<<<<<<<<<<<,<<<<<<<<<<<",
"<<<<<<<<<<<<<<<<<<,,,<<<<<<<<<<<<<<<<,,,<<<<<<<<<<",
"<<<<<<<<<<<<<<<<<<<<>,,<<<<<<<<<<<<<<,,,<<<<<<<<<<",
"<<<<<<<<<<<<<<<<<<<<<,,,,>><<<<<<<<<<<,<<<<<<<<<<<",
"<<<<<<<<<<<<<<<<<<<<<<<<,,,,,,<<<<<<<<<<<<<<<<<<<<"
};
