/* XPM */
static char *f2784cdce521467c853026e5dfab46983262F0QR1i2gHDJ5[] = {
/* columns rows colors chars-per-pixel */
"50 50 58 1 ",
"  c #F4571F",
". c #EF5925",
"X c #EE5926",
"o c #EF5A27",
"O c #EE5B27",
"+ c #EF5B27",
"@ c #E75F2E",
"# c #EC5B28",
"$ c #EA5C2A",
"% c #EA5D2B",
"& c #EC5C29",
"* c #EC5C2B",
"= c #EA5D2C",
"- c #EB5D2C",
"; c #E85F2F",
": c #F25722",
"> c #F45721",
", c #F15923",
"< c #F35822",
"1 c #F25923",
"2 c #F15824",
"3 c #F05A25",
"4 c #E55F31",
"5 c #E75E30",
"6 c #DF6337",
"7 c #DE6438",
"8 c #DE6439",
"9 c #DE653A",
"0 c #DE643B",
"q c #DB663C",
"w c #DB663D",
"e c #DC653C",
"r c #DC673D",
"t c #DA683F",
"y c #E36233",
"u c #E66030",
"i c #E76030",
"p c #E46133",
"a c #E16335",
"s c #E26336",
"d c #E46134",
"f c #E16338",
"g c #E06339",
"h c #E06439",
"j c #DA6740",
"k c #D76842",
"l c #D66943",
"z c #D76943",
"x c #D36B46",
"c c #D66944",
"v c #D56A45",
"b c #D46B45",
"n c #D46C47",
"m c #D86942",
"M c #D26C48",
"N c #D36C48",
"B c #D46C48",
"V c #CE704F",
/* pixels */
"====m=====ma*==%mp#==#rf#*=*fr#==%pr#==*dm&==*=m==",
"###%t%#&##r###&Xrp&##Xra###Xaf##XXd9####=w####=r&#",
"9Mya9yazaa9adk9d9adm7a9adjrd7adrraa7a9mda9dhmafffa",
"=n,3:3Xw#:333r=3,3,94,,,:ad333349:X,3*f3333&f3X333",
"rv7wv99v99vw9zr9zw9mr6km6zw9jmfwj9wz9rv99v7rv7rk99",
",:2X9X,,,29#,:,,9=,,,:aa,:3:4a:3,:@f::::#7:322#733",
"awaazaa7aav7y7hdz9p9aym9y6fywjy6fy9mda7d9zaf7aajaa",
"4v####%w=####w=X%#XwaXX%X6aX%#Xy9###X4r####=r#####",
"aM44d4dvdp444za44a4v9udd4rhd4d@9r=ad4ac=p44dm4d44d",
"papdv44dppmaddd4vf@4a=m7a4p4rw@yd47j4ad4ampdppdvd4",
"X33#e#o333r#3XX3r=33XXfa:XX3aa3X#347:X33=r3#X3#9#3",
"9Mdfeafkfarfam7aefaz94wfdrwaa9arjaf7drjaf9afmafrad",
"=v2X:3#e#X2X39=3333743:X:fa:2X:4f:X33#9:X2X#r3::33",
"rMark77v99jefvwajefcwfjw7jrfjj7rjarw7rvf9jfrvfhm79",
"3,3#e#3333r#3X3,r53233f42X324f2X334f23X3#rX333#r33",
"af4av44fddva4fdpj74ad4kr4aadwe4aa47j4af4fm4agd4vdd",
"dM&*=#=j=#==#j4===#ra#==*ff*==#ae#==*dr#==*4j*====",
"aM=5544md5545ca=45*c7=55=w7445=fr=55=aj555=dj55=5=",
"af4avaaaaavfdaa4v9dfa4vwdaa4jjdfapwjdaa4fvaaadavad",
"333#e#X323r#23329*33X3f43322da:#324f3323=72333#f#3",
"hvfhrffk7frfakhar9awraw7ajraeraemd9rawja7rafkffefa",
"=v3323Xe#23X2e=23X39=2:3:a4322:4a:3:2#72323#733:33",
"rvfrkffvrfjefvjfwrfvmfjrfvjfrcfjmfrjfjzf7j7evfrkef",
"#3##r#*3##e=#3#Xw4XX#39d3XX3ad3###4fX#X35r#o3o=e##",
"dd4dm4app4mapy4@j74d4@r954a=ew@444frppapam4apppv45",
"hv=4==@k4===@wa=4==j6%@4*r7=5=#9e=p5&pw====4w@%===",
"dM===#=k4%===j4===#ja#==#rf#4=#9e===#4w*==#4m%====",
"frafx7a9fav9a77avrarfazjaf7ajv47farka99arvaf9afz9a",
"3:3XrX33X39*3,32e=333:f4:32:4a333:5f:323#73333X9X3",
"fvaajaamfamaamfaeear9arrdeeare4eja7raerarrffmffjaf",
"=v33:3X9X3333f=3332fd:233aa:33:da:332=7:332=e2X233",
"mMf9jf9Mwfrwfvefrwfvwferamjfrrajvaerfrv77w97vf7rf7",
"#X&&j%#X#&r=#X#Xr4##&39a##&oaf####dh##&&=r#&#&*r##",
"d4=pjp5p=dtppp;pma=pd=r9=4d=er=4d=hr=4d=am=pp=pm4=",
"aM=dp=pvppppuzp;d4=jh=pp=r9=44=7r=d4=aj5dd=dmppp44",
"dB&&##%w=&X&%wu##=#rp&&&#9h&=##ar#&&#4r###&4r##3=#",
"9warvhfr7fvra99hvwereavwfrrajmaeefjvaerfrv7a9f9vf7",
",,3X933:33e#,:,,7=::3:f4:32:4a::::=f:2::=f233:Xf33",
"hzaavaamafw7aj9ajraj7ajwa7rarraera9ra7ra7ja9rahmfa",
"=v,X:,Xw#3333wX333:f4233:a433324a3X3,=73#3X#93X,X3",
"rVfwer7M7frffvrfw9aBjaeefvkf9razvheehrvff7frvfe7fr",
"=#%=j=#===c5#===wp#==&ra#=##7h&=*#47&&*&dw====*c=*",
"===@m=====k4====wa%==&rf#===ar#===ar====dr#====w==",
"9M=padyza4a4dmadyppm94adpcr=aa4rmdpp4rmida4am4aa44",
"pvX####w&XX&Xr@X##3rd3##39aX#X3daXX&#4r#3#&*r#X###",
"9mdmvhrjr9Br9mr7vrhmjfvmfrrfvmfjmfmmf9rfmnhhjrrvr7",
", ,393:3<,9X::::9=::< a=::, 4d::< =a:::<#a3:<<3d3:",
"ata9mfaraam9drfajha99am9yr9arrar9a9ma99ahmafrahcff",
"*n3X,3Xr#3333e=32X2r43232a4233249,333=73X33#e3o3#3",
"rVa99f9xrff7fvwfefavjffffvmf7ffjva9aarvff9frvff7ff"
};
