/* XPM */
static char *result[] = {
/* columns rows colors chars-per-pixel */
"50 50 200 2 ",
"   c black",
".  c #040404",
"X  c gray2",
"o  c gray3",
"O  c #0B0B0B",
"+  c #0E0E0E",
"@  c #101010",
"#  c #111111",
"$  c #131313",
"%  c gray9",
"&  c #191919",
"*  c #1B1B1B",
"=  c gray11",
"-  c #1E1E1E",
";  c #202020",
":  c #222222",
">  c #232323",
",  c #272727",
"<  c #282828",
"1  c gray16",
"2  c gray17",
"3  c #2C2C2C",
"4  c #2D2D2D",
"5  c #313131",
"6  c #353535",
"7  c #3A3A3A",
"8  c gray23",
"9  c #3C3C3C",
"0  c gray24",
"q  c #3F3F3F",
"w  c gray25",
"e  c #414141",
"r  c gray26",
"t  c #434343",
"y  c #464646",
"u  c gray28",
"i  c #494949",
"p  c gray29",
"a  c #4C4C4C",
"s  c gray30",
"d  c #4E4E4E",
"f  c gray31",
"g  c #505050",
"h  c #515151",
"j  c gray32",
"k  c gray33",
"l  c #555555",
"z  c #585858",
"x  c #5A5A5A",
"c  c #5B5B5B",
"v  c #5D5D5D",
"b  c gray37",
"n  c #5F5F5F",
"m  c #606060",
"M  c gray38",
"N  c gray39",
"B  c #656565",
"V  c gray40",
"C  c #676767",
"Z  c #686868",
"A  c gray42",
"S  c #6C6C6C",
"D  c gray43",
"F  c #6F6F6F",
"G  c #717171",
"H  c #727272",
"J  c gray45",
"K  c #747474",
"L  c #767676",
"P  c #777777",
"I  c gray47",
"U  c #797979",
"Y  c gray48",
"T  c #7C7C7C",
"R  c gray49",
"E  c #7E7E7E",
"W  c gray50",
"Q  c #808080",
"!  c #818181",
"~  c gray51",
"^  c #838383",
"/  c #848484",
"(  c gray52",
")  c #868686",
"_  c gray53",
"`  c #888888",
"'  c #898989",
"]  c gray54",
"[  c #8B8B8B",
"{  c gray55",
"}  c #8D8D8D",
"|  c #8E8E8E",
" . c #909090",
".. c gray57",
"X. c #929292",
"o. c #939393",
"O. c gray58",
"+. c #959595",
"@. c gray59",
"#. c #979797",
"$. c #989898",
"%. c #9A9A9A",
"&. c #9B9B9B",
"*. c gray61",
"=. c #9D9D9D",
"-. c gray62",
";. c #9F9F9F",
":. c #A0A0A0",
">. c gray63",
",. c #A2A2A2",
"<. c gray64",
"1. c #A4A4A4",
"2. c #A5A5A5",
"3. c gray65",
"4. c #A7A7A7",
"5. c gray66",
"6. c #A9A9A9",
"7. c #AAAAAA",
"8. c gray67",
"9. c #ACACAC",
"0. c gray68",
"q. c #AEAEAE",
"w. c #AFAFAF",
"e. c gray69",
"r. c #B1B1B1",
"t. c #B2B2B2",
"y. c gray70",
"u. c #B4B4B4",
"i. c #B7B7B7",
"p. c gray72",
"a. c #B9B9B9",
"s. c gray73",
"d. c #BBBBBB",
"f. c #BCBCBC",
"g. c gray74",
"h. c gray",
"j. c gray75",
"k. c #C0C0C0",
"l. c #C1C1C1",
"z. c gray76",
"x. c #C3C3C3",
"c. c gray77",
"v. c #C6C6C6",
"b. c gray78",
"n. c #C8C8C8",
"m. c gray79",
"M. c #CACACA",
"N. c #CBCBCB",
"B. c gray80",
"V. c #CDCDCD",
"C. c #CECECE",
"Z. c gray81",
"A. c #D0D0D0",
"S. c gray82",
"D. c #D2D2D2",
"F. c LightGray",
"G. c gray83",
"H. c #D5D5D5",
"J. c gray84",
"K. c #D7D7D7",
"L. c #D8D8D8",
"P. c gray85",
"I. c #DADADA",
"U. c gray86",
"Y. c gainsboro",
"T. c #DDDDDD",
"R. c gray87",
"E. c #DFDFDF",
"W. c gray88",
"Q. c #E1E1E1",
"!. c #E2E2E2",
"~. c gray89",
"^. c #E4E4E4",
"/. c gray90",
"(. c #E6E6E6",
"). c #E7E7E7",
"_. c gray91",
"`. c #E9E9E9",
"'. c #EAEAEA",
"]. c gray92",
"[. c #ECECEC",
"{. c gray93",
"}. c #EEEEEE",
"|. c #EFEFEF",
" X c gray94",
".X c #F1F1F1",
"XX c gray95",
"oX c #F3F3F3",
"OX c #F4F4F4",
"+X c gray96",
"@X c #F6F6F6",
"#X c gray97",
"$X c #F8F8F8",
"%X c #F9F9F9",
"&X c gray98",
"*X c #FBFBFB",
"=X c gray99",
"-X c #FDFDFD",
";X c #FEFEFE",
":X c white",
/* pixels */
":X:X:X;X:X:X;X:X:X:X:X:X;X:X;X*X XV.e   E k. X;X=X;X=X;X-X*X@X+X%X#X=X|.f.OX&X*X$X X|.|.^.l.U.:X-X|.",
":X:X;X:X;X;X:X;X:X:X;X:X;X;X:X*XOX^.:.* 6 O D :X*X-X:X:X:X:X=X=X*X%X@X;XH.W.$X(.}.'.@X-X;X).F.:X-X|.",
":X:X;X:X;X;X:X;X:X:X:X;X:X;X:X-X&X[.J.Y.&X<.  2.:X*X;X;X;X:X;X@X+X&X#X&X#X{.}.I.$X*X:X$XXX#X#X&X-X X",
":X:X:X;X:X:X;X:X:X;X;X:X;X;X;X-X$XoX$X&X@XOXT X E.:X%X:X:X-X:X@XOX@X@X&X*X:XR.{.*X*X=X=X'.;X@X].;X|.",
":X:X;X:X;X;X:X;X:X:X;X:X;X;X;X=X*X&X$X+X+X@X}.9 , (.%X|.oX:X=X*X*X#X#X%X*X;X[.#X*X%X:XD.L.U.b.[.:X|.",
":X:X:X:X:X:X:X:X:X;X:X;X:X:X;X;X=X=X$X%X#XXX).n.r 5 OX{.*.G.=X=X#X$X&X&X*X$X&X@X[.;XA.,.).[.oX=X-X|.",
":X:X:X:X:X:X:X:X:X;X:X;X;X;X;X-X*X*X$X$XOX.X}.{.].M -.:XT.k.e.XX%X&X$X#X*X%X=X$X$X:Xn.w.#X%X&X*X;X|.",
":X:X:X:X:X:X:X:X:X:X;X:X;X;X;X-X=X*X#X+X@XOX#X XXX_.) b.-X:X>.&.:X@X$X$X*X=X%X:Xh.3.a.K.:X%X%X-X;X|.",
":X:X:X:X:X:X:X:X:X;X:X;X:X;X;X-X=X=X$XOX+XoX.XXXOX$X Xs.A.W.w.v %X&X:X%X&X=X#X:X~ a.:X:X$X%X*X:X;X|.",
":X:X:X:X:X:X:X:X:X:X;X:X;X;X:X;X-X=X%X$XOX|.[..XOX+X@X}.!.Y.XX) 6.:X`.;X%X*X*X:X=.Q.;X$X%X=X;X:X;X|.",
":X:X:X:X:X:X:X:X:X:X:X;X:X;X;X:X:X=X$X@X#XXX.XoX+X#X#X$X;X#XE.:.y 3.d.*X$X$X@X;Xs.'.;X%X&X;X:X:X;X|.",
":X:X:X:X:X:X:X:X:X:X:X;X:X;X;X;X:X=X+XXX@XOX@X$X$X#XOX*X X<.G c < V.:X:X:X:X:XW.~ $X$X$X&X;X:X:X;X|.",
":X:X:X:X:X:X:X:X:X;X:X;X;X;X;X;X:X%XXX+X#X&X*X&X%X%X&X#Xx.K.$X=XX.y -.} S ) =.V y.$X X;X&X;X:X:X;X|.",
":X:X;X:X;X;X;X;X;X;X;X;X:X:X:X:X=X$X+XOX$X*X-X=X%X+X=X_.].=X@X@X:X8   > X   # 9 :X:X(./.:X:X;X:X;X|.",
":X;X;X:X;X:X:X:X;X:X:X:X;X;X=X=X&X@XOX%X=X;X;X=X&X*X=XXX@X&X&X;X).; n R ; o s 1 u d.o.0 ( .X:X;X;X|.",
":X:X:X;X:X:X;X;X:X;X-X-X;X%X%X*X$X#X&X=X=X=X=X&X*X&X=X%X&X=X&X:X0.l l.' Q } u # =   b [.g.b.&X;X;X|.",
";X;X;X:X;X-X=X=X=X*X&X&X%X$X%X&X*X-X=X&X=X:X;X&X=X$X%X%X&X%X:XXXK N.}.=X:X:X_.H.K.: %.:X:X+X#X:X;X|.",
":X;X:X:X;X-X;X:X:X:X:X:X:X:X=X@X&X:X:X:X-Xc.Q.*X%X&X*X%X%X%X:XW.1 P.=X@X@XoX$X#X:X..q :X$X&X;X:X;X|.",
";X;X:X;X-X;X}.Y.z.1.@.,.7.j.|.:X;XY.c.8.A 9.:X&X#X%X&X*X%X#X:X]   p.:X#X*X$X$X+X@XoXx c.:X%X;X:X;X|.",
";X:X;X-X-X=X%X{.R.M.c.,.E C z F m n Y ) k.0.6..X:X#X#X+X$X%X|.7   9.:X$X-X*X#X#X@X;XV.,.:X&X;X:X;X|.",
";X:X;X;X-X;X;X&X=X:X:X:X:X:XU.s.C.oX:X:X:X$Xm.%.G.:X@XoX%X:X#X-   6.:X$X*X*X&X&X&X&XOXn.%X:X;X:X;X|.",
";X:X;X-X-X-X=X@X#X#X$X+X#X$X:X:X:X&X+XOX+X@X:X(.%.^.:X:X|.:.F 2   ! :X%X=X*X=X*X%X$X%X+X#X:X;X:X;X|.",
";X;X:X;X;X;X=X%X$X#X@X&X-X-X-X=X%X&X*X$X@X$X.X|.N.@.b.A 0 y 8 b - I :X%X-X*X-X%X@X%X*X=X=X;X;X:X;X|.",
":X;X;X:X-X-X;X-X*X*X%X@X*X:X-X=X-X*X*X%X$X+XOX|.).b.s.U z - z $.w H :X$X-X-X-X&X@X#X*X-X;X:X;X:X;X|.",
";X;X:X;X;X-X-X;X-X%X#X&X*X&X;X-X=X=X*X&X=X#X#XOXn.0.v.d.Q %  .` 3 4 ^.:X*X%X*X*X$X&X%X-X:X;X;X:X;X|.",
":X:X;X;X:X;X-X&X&X$X#X$X*X=X-X;X;X-X-X-X*X*X$X*X5.e.S.c.f.d.m . # p C.@X%X%X%X#X+X%X*X-X:X;X;X:X;X|.",
":X;X;X:X;X-X=X*X*X&X*X%X&X=X;X;X=X-X;X;X=X-X:X[.g.k.M.B.b.B.) & ^ ;X#X).$X@XoX[. X$X$X;X:X;X;X:X;X|.",
":X:X;X;X:X;X-X-X-X-X-X*X=X&X=X;X*X-X;X;X*X=X.Xm.I.!.L.F.B.A.N a.:XOX X.X@XXX{.!.'.@X+X;X;X;X;X:X;X|.",
":X:X;X;X;X:X;X*X-X;X;X=X&X*X=X*X:X;X=X%X:X^ Y :XoX$XOX{.^.R.k :.:X:X:XOXoX}.!.L.}.@X$X*X-X:X:X:X;X|.",
":X:X;X;X:X;X-X-X:X-X&X-X*X&X&X:XZ.U.*X#X*Xg *.:X$X;X:X*X|..XW   H _ 8.|.[.^.!.'..X+X$X%X%X-X;X:X;X|.",
":X:X:X;X:X:X;X;X;X=X=X&X&X%X:Xy.r.#XOX:Xa.X.&XXX-X:X;X:X$X$Xg.#       b ].I.}.oX.XoXXXoX+X%X;X:X;X|.",
":X:X:X;X;X;X;X;X=X=X=X%X&X:XY.0.:X&X%XY.{ ].;X=X;X;X;X:X-X%XOXK i %./ W ~.].}..XoXOX X.XXX+X=X:X;X|.",
";X;X:X;X;X:X;X;X;X=X=X%X$X:Xe.P.:X$X:Xu.M.:X-X:X:X;X;X:X-X@X:Xo.[ -X=X!.N..XXX XoXoX.X{. X+X-X:X;X|.",
":X:X;X:X:X;X:X:X;X-X=X&X*X:X! ).|.+X-X+X:X;X:X;X;X;X;X;X=X+X&XN K {.{.}.U.}.$X#X%XoX X{. X@X;X:X;X|.",
";X;X:X;X;X:X;X:X;X-X*X@X Xw.| {.&X*X*X%X=X:X;X;X;X;X;X;X%X$XG.< p..X].OX#X$X&X#X#X%X@X#XOX+X;X:X;X|.",
";X;X:X;X:X;X;X:X;X=X$XOX} ` I.A.:X%X%X&X-X;X;X:X:X:X;X-X%XoXV.% :.-X'.|.oX#X$X%X#XOX#X@XOX%X:X:X;X|.",
":X:X;X:X;X:X;X;X=X*X-X`.a.OX%XE.XX&X*XXX#X;X;X-X-X-X=X$XOX[.U.- | ;X.X{..X+XOX@X$XOX+X@X$X-X;X:X;X|.",
";X;X:X;X:X:X;X-X*X;X#XC.oX$X*X$X.X&X-XT. X-X-X*X=X=X$X X}.+X#.; J..XXX|.OX#X#XOX#X#X$X&X%X*X;X:X;X|.",
";X;X;X:X;X;X-X*X*X#XK.oX-X&X-X-X-X%X%X X=X-X-X;X=X=X@XXX`.[.x n OX(.{. XOXOXOX@X%X$X@X#X@X*X;X:X;X|.",
";X:X;X;X:X=X*X:X|.`.oX%X&X-X;X;X-X=X-X=X=X=X&X%X=X&X:X:X*X#Xt R *X(.).(.]. X XXX@X@X@X#X%X;X;X:X;X|.",
":X;X:X:X-X&X%X;Xx.}.-X$X*X;X;X:X:X:X;X-X=X-X*X*X;X-Xr.! J *., d @X[.[.`.).{.|.XXXX|.@X$X$X*X;X:X;X|.",
";X:X;X-X%X$X:X.XA.:X*X*X-X:X:X;X;X;X;X-X;X-X%X%X.X+.B ' *.n %   6.}.U.Q.~._.).~._. X#X+XOX$X;X:X;X|.",
";X:X;X=X%X=X$XU.{.$X&X=X-X:X;X;X:X;X;X;X;X-X*X-X{.F.%X:X^.h.+.$ f /.b.F.P.I.L.T.|.+X X{.}.#X=X;X;X|.",
";X:X;X=X=X:X(.P.oXOX=X-X;X;X;X:X;X:X:X;X;X-X:X&X-X:X:X&.4.F.n.E X ) K.Y.L.H.'.+X@X{.`.^.'.#X=X;X;X|.",
";X;X:X;X'.+X+X@X$X&X@X&X=X:X-X-X:X;X;X;X:X:X*X:X:XA.a p ^.[.W.z.h + i.[./._.R.|.XX[.~./. X#X=X;X;X|.",
":X;X;X:XOXB.[.:X:X:X%X:X:X(.@X:X;X;X:X:X=X).f.[ j   y OXoXoX.X`.F.b K.%X.XOXK.S.~.!._.{.XX%X=X:X;X|.",
";X;X:X-X:X+XA.K.A.H.J.n.O.k.$X*X=X=X#X(.H.N.Y.f @ t.&X-X%X&X$X@X_.Z ^.-X$X@X].F.F.U.)..X+X&X-X:X;X|.",
":X:X:X:X*X;X&X}.(.2.q.t | :X@X%X%X*XXXQ.Y.F.`.b K :X#X*X;X;X;X=X=XX.I.:X%X+X XQ.R.[.{.+X%X=X;X:X;X X",
"-X-X-X-X=X&X%X%X-X:X:XL k.;X%X*X&X%X#XoX].!.'.$.P :X@X*X-X-X-X=X:Xr.Q.=X%X#X[.E.W.Y.`.[.OX#X&X-X-X}.",
"|.|.|.|.{.{.{.{.[.). X;.c..X].|.|.}.].'._.~.~.C.;.}.{.}.|.|.|.}..XN.C. X].[.^.J.P.I.[._.'.[.{.|.}.}."
};
