/* XPM */
static char *result[] = {
/* columns rows colors chars-per-pixel */
"50 50 214 2 ",
"   c #6A6864",
".  c #6B6964",
"X  c #6A6865",
"o  c #6A6965",
"O  c #6B6965",
"+  c #6B6A65",
"@  c #6B6966",
"#  c #6B6967",
"$  c #6B6A66",
"%  c #6B6A67",
"&  c #6C6965",
"*  c #6C6A65",
"=  c #6C6966",
"-  c #6C6A66",
";  c #6D6A66",
":  c #6C6B66",
">  c #6D6B66",
",  c #6C6A67",
"<  c #6D6A67",
"1  c #6C6B67",
"2  c #6D6B67",
"3  c #6E6B67",
"4  c #6C6B68",
"5  c #6C6B69",
"6  c #6C6C69",
"7  c #6D6C69",
"8  c #6E6C68",
"9  c #6F6C68",
"0  c #6F6D68",
"q  c #6E6D69",
"w  c #6F6D69",
"e  c #6D6C6A",
"r  c #6E6C6A",
"t  c #6E6D6A",
"y  c #6F6D6B",
"u  c #6E6E6A",
"i  c #6F6E6A",
"p  c #6F6E6B",
"a  c #706D69",
"s  c #706E69",
"d  c #706E6A",
"f  c #716E6A",
"g  c #706E6C",
"h  c #72706B",
"j  c #73716B",
"k  c #71706D",
"l  c #73716C",
"z  c #72706D",
"x  c #71706E",
"c  c #75726D",
"v  c #75726E",
"b  c #78756F",
"n  c #747370",
"m  c #757370",
"M  c #767470",
"N  c #767571",
"B  c #757572",
"V  c #787570",
"C  c #787571",
"Z  c #797671",
"A  c #797672",
"S  c #787673",
"D  c #7A7772",
"F  c #7B7872",
"G  c #7B7874",
"H  c #7B7974",
"J  c #7B7975",
"K  c #7B7A77",
"L  c #7C7975",
"P  c #7D7A75",
"I  c #7E7A75",
"U  c #7E7B75",
"Y  c #7C7976",
"T  c #7C7A76",
"R  c #7E7B76",
"E  c #7F7C77",
"W  c #7E7C78",
"Q  c #7F7D78",
"!  c #817E77",
"~  c #807D79",
"^  c #807E7A",
"/  c #817E7A",
"(  c #827F7B",
")  c #807F7D",
"_  c #827F7C",
"`  c #838079",
"'  c #848079",
"]  c #86827B",
"[  c #83807C",
"{  c #87837C",
"}  c #87837D",
"|  c #84827E",
" . c #85827E",
".. c #86837E",
"X. c #86837F",
"o. c #88847C",
"O. c #88847D",
"+. c #89857D",
"@. c #88847E",
"#. c #89857E",
"$. c #8A867E",
"%. c #8A867F",
"&. c #828180",
"*. c #878480",
"=. c #888580",
"-. c #898581",
";. c #8A8780",
":. c #8B8780",
">. c #8A8681",
",. c #8B8781",
"<. c #888682",
"1. c #8B8782",
"2. c #888786",
"3. c #8B8883",
"4. c #8C8882",
"5. c #8B8884",
"6. c #8C8884",
"7. c #8C8984",
"8. c #8D8984",
"9. c #8E8B86",
"0. c #8F8B86",
"q. c #8F8C87",
"w. c #908C87",
"e. c #908C88",
"r. c #908D88",
"t. c #908D89",
"y. c #918D89",
"u. c #928D89",
"i. c #918E8A",
"p. c #918F8B",
"a. c #928E8A",
"s. c #938F8A",
"d. c #94908B",
"f. c #95908B",
"g. c #94918B",
"h. c #95918B",
"j. c #92908C",
"k. c #90908E",
"l. c #91908F",
"z. c #95908C",
"x. c #95918C",
"c. c #95918D",
"v. c #96918C",
"b. c #95928D",
"n. c #96928C",
"m. c #96928D",
"M. c #97928D",
"N. c #97938E",
"B. c #96938F",
"V. c #97938F",
"C. c #98938E",
"Z. c #939291",
"A. c #969695",
"S. c #999692",
"D. c #999793",
"F. c #999794",
"G. c #989795",
"H. c #999795",
"J. c #9B9895",
"K. c #9B9997",
"L. c #9C9A97",
"P. c #9D9A97",
"I. c #9C9A98",
"U. c #9D9A98",
"Y. c #9E9D9B",
"T. c #9F9D9B",
"R. c #9D9C9C",
"E. c #9E9D9C",
"W. c #9E9D9D",
"Q. c #9F9E9D",
"!. c #A09E9C",
"~. c #A09F9D",
"^. c #A09F9E",
"/. c #A09F9F",
"(. c #A19F9F",
"). c #A1A09E",
"_. c #A1A09F",
"`. c #A19FA0",
"'. c #A0A0A0",
"]. c #A1A0A0",
"[. c #A1A1A0",
"{. c #A1A0A1",
"}. c gray63",
"|. c #A2A0A0",
" X c #A2A1A0",
".X c #A2A0A1",
"XX c #A2A1A1",
"oX c #A3A2A1",
"OX c #A2A1A2",
"+X c #A2A2A2",
"@X c #A3A2A2",
"#X c #A3A3A2",
"$X c #A3A2A3",
"%X c gray64",
"&X c #A4A3A2",
"*X c #A4A3A3",
"=X c #A4A4A4",
"-X c #A5A4A4",
";X c #A5A5A4",
":X c #A5A4A5",
">X c #A5A5A5",
",X c #A6A5A5",
"<X c #A6A6A5",
"1X c #A5A6A6",
"2X c gray65",
"3X c #A7A6A6",
"4X c #A7A6A7",
"5X c #A7A7A7",
"6X c #A8A7A7",
"7X c #A7A8A8",
"8X c gray66",
"9X c #A9A8A9",
"0X c #A9A9A9",
"qX c None",
/* pixels */
"qXqXqXqXqXqXqXqXqXqXqXqXqXqXqXqXqXqXqXqXqXqXqXqX0X8X8X6X8XqXqXqXqXqXqXqXqXqXqXqXqXqXqXqXqXqXqXqXqXqX",
"qXqXqXqXqXqXqXqXqXqXqXqXqXqXqXqXqXqXqX0X8X5X5X>X*X%X@XXX+X-X5X8XqXqXqXqXqXqXqXqXqXqXqXqXqXqXqXqXqXqX",
"qXqXqXqXqXqXqXqXqXqXqXqXqX7X8X8X5X2X>X*X@XXX].].].].].].].].XX%X,X5X8XqXqXqXqXqXqXqXqXqXqXqXqXqXqXqX",
"qXqXqXqXqXqXqXqX8X5X5X5X,X=X%X+X}.].].].].].].XXXXXXXXXXXXXX].].`.XX*X2X5XqXqXqXqXqXqXqXqXqXqXqXqXqX",
"qXqX2X8X8X5X2X>X*X@XXX X].(.].].].].XXXXXXXXXX].].].].].].].XXXXXX].].].+X>X3X8XqXqXqXqXqXqXqXqXqXqX",
"k.0X0X%XXXXX].].].].].].XXXXXXXXXXXX].].].].].].XX].XXXX].XX].]. XXXXX].].].].%X,X8X0XqXqXqXqXqXqXqX",
"7 ) '.9X]./.].XXXXXXXXXX].].].].].].XX].XXXXXXXXXXXXXXXXXXXX].XX].].].XXXXXX].].].XX*X2X8XqXqXqXqXqX",
"p % n Z.0X-X/.].XXXX]. X X{. XXXXXXXXXXXXXXXXXXXXXXXXXXXXXXXXXXXXX].XX].].].XXXXXX].].].@X-X5X8XqXqX",
"p p 7 7 &.+X8X]./.XXXX].XXXX].XXXXXXXXXXXXXXXXXXXXXXXXXXXXXXXXXXXXXXXX].XX].].].].XXXX|.].].XX%X2X5X",
"p t p p % B A.0X*X/.].XX].].XXXX].XXXXXXXXXXXXXXXXXXXXXXXXXXXXXXXXXXXXXXXXXXXX].XX].].XXXXXX].].].XX",
"p p t p p 7 t 2.<X5X'.(.XXXX].].XX].XXXXXXXXXXXXXXXXXXXXXXXXXXXXXXXXXXXXXXXXXXXXXX].XX X].].XXXXXX].",
"p t p t t p t , K R.0X@X/.].XXXX].XX].].XXXXXXXXXXXXXXXXXXXXXXXXXXXXXXXXXXXXXXXXXXXXXXXX]..X[.].].XX",
"p p t p p t p p 4 x l.7X=X].(.XXXX].].XXXX].XXXXXXXXXXXXXXXXXXXXXXXXXXXXXXXXXXXXXXXXXXXXXXXXXX].XX].",
"p p p p t p t t g 4 m D.#X5X@X/.].XXXX].].XX].XXXXXXXXXXXXXXXXXXXXXXXXXXXXXXXXXXXXXXXXXX].].XX].].XX",
"p p p p p p p p p 7 Y x.x.U.>X1XXX_.].XXXX].XX].].XXXXXXXXXXXXXXXXXXXXXXXXXXXXXXXXXX].XX].].].XX].].",
"p p p p p p t p p 5 / C.x.d.V.~.2X:X].(.].XX].].XXXX].XXXXXXXXXXXXXXXXXXXXXXXX.X].XX].].].].].].XX%X",
"p p p p p p p p p 7 ..N.x.m.x.d.D.oX4X%X_.].XXXX}.].].XXXX].XXXXXXXXXXXXXXXX].].].].].].].XX$XXXQ.F.",
"p p p p p p t p t t 6.N.x.x.m.m.f.x.L.;X2XXX/.].].XXXX}.].].XXXX].XX].].].].].].].].XX@XXXE.H.t.%.{ ",
"p p p p p p t p t z e.m.x.x.x.b.m.x.d.B.!.2X>X@X]./.].]. XXX].].].].].].].].].XX@XXXE.H.i.;.o.{ O.#.",
"p p p p p p t p 7 N d.m.x.x.m.m.x.m.m.x.d.S.).&X;X=X%XOX].].].].].].].].XX@XXXW.H.a.:.o.{ O.#.#.#.#.",
"p p p p p p p p 6 J m.x.x.m.m.x.m.x.x.m.m.x.f.m.S.P.T.^._.].XXOXXX].XXOXQ.G.p.,.O.{ O.#.#.#.#.#.+.#.",
"p p p p p t p p 7 ^ N.x.x.x.m.m.x.m.m.x.m.m.m.x.x.f.f.v.N.S.J.I.Y.].K.j.4.O.{ O.#.#.#.#.#.+.#.#.#.#.",
"p p p p p p p p 7  .N.x.x.m.m.m.m.m.x.m.x.c.m.m.m.m.m.c.x.x.h.h.N.<.` o.O.#.#.#.#.#.@.#.#.#.#.#.#.#.",
"p p p p p t p t t 3.N.x.x.m.m.m.m.m.m.m.m.m.m.x.m.m.m.m.m.m.c.m.u.w l #.#.@.#.O.#.O.#.#.#.#.#.#.#.#.",
"p p p p p t p t k r.m.x.x.m.m.m.m.m.m.m.m.m.m.m.m.m.m.m.x.x.x.N.~ O - I $.O.+.O.+.#.#.#.#.#.#.#.#.#.",
"p p p p p t p 7 N d.m.x.x.m.m.m.m.m.m.m.m.m.m.m.m.m.m.x.m.x.m.r.f - - w ] #.O.#.O.#.#.#.#.#.#.#.#.#.",
"p p p p p p p 7 T m.x.x.m.m.m.m.m.m.m.m.m.m.m.m.m.m.m.x.x.x.N.Q o 2 2 O V #.O.O.@.O.#.#.#.#.#.#.#.#.",
"p p p p p p p 6 / N.x.x.x.m.m.m.m.m.m.m.m.m.m.m.m.m.x.x.x.m.w.d - 2 2 - 2 ! $.O.+.O.+.#.#.#.#.#.#.#.",
"p p p p p p p 7 X.N.x.x.m.m.m.m.m.m.m.m.m.m.m.m.m.m.x.x.x.N.E   2 - - 2 O h { #.O.#.O.#.#.#.#.#.#.#.",
"p p p p p p p t 3.N.x.x.m.m.m.m.m.m.m.m.m.m.m.m.m.x.v.x.M.q.a - 2 - 2 2 2 O F $.O.O.@.+.#.#.#.#.#.#.",
"p p p p p p p 7 -.N.x.x.m.m.m.m.m.m.m.m.m.m.m.m.m.x.x.x.N.R   2 - 2 2 - 2 - 3 ` #.O.+.@.O.#.#.#.#.#.",
"p p p p p p p 6 | C.x.x.m.m.m.m.m.m.m.m.m.m.m.m.x.m.x.N.0.w - 2 - - , 2 - 2 O c +.O.O.O.+.#.#.#.#.#.",
"p p p p p p p 6 ( N.x.x.m.m.m.m.m.m.m.m.m.m.m.m.x.x.x.N.P   2 - 2 2 2 2 2 2 2 - U $.O.+.@.+.#.#.#.#.",
"p p p p p p p 6 W N.x.x.m.m.m.m.m.m.m.m.m.m.m.x.n.x.N.9.0 - 2 1 - 2 2 , 2 - 2 - s ] #.O.+.O.#.#.#.#.",
"t p t p p p p 7 J m.x.x.x.m.m.m.m.m.m.m.m.m.m.x.x.x.N.L   2 - 2 2 2 2 2 2 2 - 2 O V #.O.O.O.O.#.#.#.",
"p t p t p i p 7 S x.m.x.m.m.m.m.m.m.m.m.m.m.x.m.x.N.9.9 - 2 - - 2 2 2 2 2 - 1 2 - , ! $.O.+.@.+.#.#.",
"t p t p p t p 7 m s.m.x.x.m.m.m.m.m.m.m.m.m.m.x.x.N.H   2 - 2 2 2 2 2 2 2 2 2 - 2 O h { #.O.+.O.#.#.",
"t p t t p t p t k y.m.x.x.m.m.m.m.m.m.m.m.x.x.x.N.8.8 - 2 1 - 2 2 2 2 2 2 2 - 2 2 2 = F $.O.O.@.#.+.",
"e p t t t t p t p 0.N.x.b.m.m.m.m.m.m.m.m.x.x.x.N.G   2 - 2 2 2 2 2 2 2 2 2 2 2 - 2 - 8 ' #.O.+.O.@.",
"qXu p t p p p p t 5.N.x.x.m.m.m.m.m.m.m.x.x.x.N.7.2 - 2 2 - 2 2 2 2 2 2 2 2 2 , 2 - 2 O v +.O.O.@.+.",
"qXt p p t t p p 7 *.N.x.x.m.m.m.m.m.m.m.x.x.x.m.D   2 - 2 2 2 2 2 2 2 2 2 2 2 2 - - 2 2 + U $.O.#.O.",
"qXr y u p p p p 5 _ C.x.x.x.b.m.m.m.m.x.x.x.N.3.2 - 2 2 - 2 2 2 2 2 2 2 2 2 2 2 2 2 - 2 $ s ] #.O.O.",
"qXqXt p t t t t # [ N.x.x.x.x.m.x.m.m.x.x.x.m.A   2 - 2 2 2 2 2 2 2 2 2 2 2 2 2 2 - 2 - 2 O b $.O.{ ",
"qXqXq t t qXqXqXqXqXx.c.m.n.x.v.n.x.x.x.x.N.1.2 - 2 2 2 2 2 2 2 2 2 - 2 - - - - - - - - 2 - - ! #.qX",
"qXqXqXqXqXqXqXqXqXqXqXg.x.c.m.x.x.m.x.x.x.m.Z X 2 - 2 2 2 - 2 - - - - - ; 2 ; 2 2 2 2 2 , 2 . j } qX",
"qXqXqXqXqXqXqXqXqXqXqXqXqXz.x.m.m.x.m.x.N.>.- - 2 - - - > - - 2 : 1 2 2 2 - 2 - - - - - $ O qXqXqXqX",
"qXqXqXqXqXqXqXqXqXqXqXqXqXqXqXx.x.m.x.x.x.C O 2 - - 2 < , 2 2 - < < - - - @ $ O qXqXqXqXqXqXqXqXqXqX",
"qXqXqXqXqXqXqXqXqXqXqXqXqXqXqXqXd.x.x.N.=.1 2 2 2 2 - : > - - - $ - $ qXqXqXqXqXqXqXqXqXqXqXqXqXqXqX",
"qXqXqXqXqXqXqXqXqXqXqXqXqXqXqXqXqXqXc.d.M O 2 - - - & * - qXqXqXqXqXqXqXqXqXqXqXqXqXqXqXqXqXqXqXqXqX",
"qXqXqXqXqXqXqXqXqXqXqXqXqXqXqXqXqXqXqXqX2 + - O qXqXqXqXqXqXqXqXqXqXqXqXqXqXqXqXqXqXqXqXqXqXqXqXqXqX"
};
