/* XPM */
static char *result[] = {
/* columns rows colors chars-per-pixel */
"50 50 73 1 ",
"  c black",
". c #484745",
"X c #4B4A49",
"o c #5B5A58",
"O c #696867",
"+ c #777777",
"@ c #797979",
"# c gray48",
"$ c #7B7B7B",
"% c #7C7C7C",
"& c gray49",
"* c #7E7E7E",
"= c gray50",
"- c #808080",
"; c #818181",
": c gray51",
"> c #838383",
", c gray52",
"< c gray53",
"1 c #888888",
"2 c #898989",
"3 c #8B8B8B",
"4 c gray55",
"5 c #8C8C8D",
"6 c #8D8D8D",
"7 c #8E8E8E",
"8 c gray56",
"9 c #909090",
"0 c gray57",
"q c #929292",
"w c #939393",
"e c gray58",
"r c gray59",
"t c #989898",
"y c gray60",
"u c #9A9A9A",
"i c gray61",
"p c #9F9FA0",
"a c #A2A1A1",
"s c gray64",
"d c #A7A7A7",
"f c gray66",
"g c #A9A9A8",
"h c #A9A9A9",
"j c #AAA9AA",
"k c #AAAAAA",
"l c #ACACAC",
"z c #B0AFAF",
"x c #B4B4B4",
"c c gray71",
"v c #B7B7B7",
"b c gray72",
"n c gray73",
"m c #BBBABA",
"M c gray77",
"N c #C6C6C6",
"B c gray78",
"V c #C8C8C8",
"C c #CECECE",
"Z c gray82",
"A c #D2D2D2",
"S c LightGray",
"D c gray84",
"F c #D7D7D7",
"G c #D8D8D8",
"H c gray85",
"J c #DADADA",
"K c gray86",
"L c gainsboro",
"P c #DDDDDD",
"I c gray87",
"U c #E2E2E2",
"Y c None",
/* pixels */
"YYYYYYYYYYYYYYYYYYYYYYYYYYYYYYYYYYYYYYYYYYYYYYYYYY",
"YYYYYYYYYYYYYYYYYYYYYYYYYYYYYYYYYYYYYYYYYYYYYYYYYY",
"YYYYYYYYYYYYYYYYYYYYYYYYYYYYYYYYYYYYYYYYYYYYYYYYYY",
"YYYYYYYYYYYYYYYYYYYYYYYYYYYYYYYYYYYYYYYYYYYYYYYYYY",
"YYYYYYYYYYYYYYYYYYYYYYYYYYYYYYYYYYYYYYYYYYYYYYYYYY",
"YYYYYYYYYYYYYYYYYYYYYYYYYYYYYYYYYYYYYYYYYYYYYYYYYY",
"YYYYYYYYYYYYYYYYYYYYYYYYYYYYYYYYYYYYYYYYYYYYYYYYYY",
"YYYYYYYYYYYYYYYYYYYYYYYYYYYYYYYYYYYYYYYYYYYYYYYYYY",
"YYYYYYYYYYYYYYYYYYYYYYYYYYYYYYYYYYYYYYYYYYYYYYYYYY",
"YYYYYYYYYYYYYYYYYYYYYYYYYYYYYYYYYYYYYYYYYYYYYYYYYY",
"YYYYYYYYYYYYYYYYYYYYYYYYYYYYYYYYYYYYYYYYYYYYYYYYYY",
"YYYYYYYYYYYYYYYYYYYYYYYYYYYYYYYYYYYYYYYYYYYYYYYYYY",
"YYYYYYYYYYYYYYYYYYYYYYYYYYYYYYYYYYYYYYYYYYYYYYYYYY",
"YYYYYYYYYYYYYYYYYYYYYYYYYYYYYYYYYYYYYYYYYYYYYYYYYY",
"YYYYYYYYYYYYYYYYYYYYYYYYYYYYYYYYYYYYYYYYYYYYYYYYYY",
"YYYYYYYYYYYYYYYYYYYYYYYYYYYYYYYYYYYYYYYYYYYYYYYYYY",
"YYYYYYYYYYYY-&cIZ0%;-YYYYYYYYYYYYYYYYYYYYYYYYYYYYY",
"YYYYYYYYY---=-163>=-=----YYYYYYYYYYYYYYYYYYYYYYYYY",
"YYYYYYY--===--&%%=-=-====-=YYYYYYYYYYYYYYYYYYYYYYY",
"YYYYYY-==----=----=-=-----=--YYYYYYYYYYYYYYYYYYYYY",
"YYYYY-=--==-----------=--=-==-YYYYYYYYYYYYYYYYYYYY",
"YYYY----------------------=--=-YYYYYYYYYYYYYYYYYYY",
"YYY--=-=------------------------YYYYYYYYYYYYYYYYYY",
"YY--===---------------------=---=YYYYYYYYYYYYYYYYY",
"YY------------------------------=YYYYYYYYYYYYYYYYY",
"Y---==------------------------=-=-YYYYYYYYYYYYYYYY",
"Y=-------------------------------=YYYYYYYYYYYYYYYY",
"Y-==-------------------------------YYYYYYYYYYYYYYY",
"-=--=-;-=--------------------------YYYYYYYYYYYYYYY",
"-=-=-$+$-=---------------------===-YYYYYYYYYYYYYYY",
"-==-$ext$-=---------------------=--YYYYYYYYYYYYYYY",
"=--%8gXmp#;----------------------==YYYYYY=YYYYYYYY",
"=--+jO .v+;-----------------------=YYYYY-=-=YY---Y",
"-=-&4zoay$-----------------------=--YYYYY==-=====-",
"-==-%5lr$-=------------------------=YYYYYY=-=-=YYY",
"-=-=-&+$-==-----=--=--------------=-YYYYYY-=-=YYYY",
"Y---=-;--=-=---=-==-=--------------=YYYYYY=-=-YYYY",
"Y------*&:=-----=--=---------------=--YY--=---YYYY",
"Y-&&&&%;y7&-----=--=-----=--------=-==--==-=-YYYYY",
"YY71<3ry7=-=*&%&-==-*%*=-;---=-----=--==--=--YYYYY",
"YYYuie<-@@%;,4w4&;-=19,;%@%=---=--=--=--=---YYYYYY",
"YYYY#&%=0fnVSDHZ2#;--sAVndq;#$=-==--=-==-=YYYYYYYY",
"YYYYYY9MHIIKJHGPB4%&:hKKIIHCbe;=--===-=YYYYYYYYYYY",
"YYYYYYYYYDDGGGGFPZkfNIGFFFGLUDeYYYYYYYYYYYYYYYYYYY",
"YYYYYYYYYYYYYYYYYYYYYYYYYYYYYYYYYYYYYYYYYYYYYYYYYY",
"YYYYYYYYYYYYYYYYYYYYYYYYYYYYYYYYYYYYYYYYYYYYYYYYYY",
"YYYYYYYYYYYYYYYYYYYYYYYYYYYYYYYYYYYYYYYYYYYYYYYYYY",
"YYYYYYYYYYYYYYYYYYYYYYYYYYYYYYYYYYYYYYYYYYYYYYYYYY",
"YYYYYYYYYYYYYYYYYYYYYYYYYYYYYYYYYYYYYYYYYYYYYYYYYY",
"YYYYYYYYYYYYYYYYYYYYYYYYYYYYYYYYYYYYYYYYYYYYYYYYYY"
};
