/* XPM */
static char *result[] = {
/* columns rows colors chars-per-pixel */
"50 50 76 1 ",
"  c black",
". c #484745",
"X c #4B4A49",
"o c #5B5A58",
"O c #696867",
"+ c #777777",
"@ c #797979",
"# c gray48",
"$ c #7B7B7B",
"% c #7C7C7C",
"& c gray49",
"* c #7E7E7E",
"= c gray50",
"- c #808080",
"; c #818181",
": c gray51",
"> c #838383",
", c gray52",
"< c gray53",
"1 c #888888",
"2 c #898989",
"3 c #8B8B8B",
"4 c gray55",
"5 c #8C8C8D",
"6 c #8D8D8D",
"7 c #8E8E8E",
"8 c gray56",
"9 c #909090",
"0 c gray57",
"q c #929292",
"w c #939393",
"e c gray58",
"r c gray59",
"t c #989898",
"y c gray60",
"u c #9A9A9A",
"i c gray61",
"p c #9F9FA0",
"a c #A2A1A1",
"s c gray64",
"d c #A7A7A7",
"f c gray66",
"g c #A9A9A8",
"h c #A9A9A9",
"j c #AAA9AA",
"k c #ACACAC",
"l c #AEAEAE",
"z c #B0AFAF",
"x c gray69",
"c c #B4B4B4",
"v c #B6B6B6",
"b c #B7B7B7",
"n c gray72",
"m c gray73",
"M c #BBBABA",
"N c gray77",
"B c gray78",
"V c #C8C8C8",
"C c gray79",
"Z c #CECECE",
"A c #D0D0D0",
"S c gray82",
"D c #D2D2D2",
"F c LightGray",
"G c gray84",
"H c #D7D7D7",
"J c #D8D8D8",
"K c gray85",
"L c #DADADA",
"P c gray86",
"I c #DDDDDD",
"U c gray87",
"Y c #E1E1E1",
"T c #FEFEFE",
"R c white",
"E c None",
/* pixels */
"EEEEEEEEEEEEEEEEEEEEEEEEEEEEEEEEEEEEEEEEEEEEEEEEEE",
"EEEEEEEEEEEEEEEEEEEEEEEEEEEEEEEEEEEEEEEEEEEEEEEEEE",
"EEEEEEEEEEEEEEEEEEEEEEEEEEEEEEEEEEEEEEEEEEEEEEEEEE",
"EEEEEEEEEEEEEEEEEEEEEEEEEEEEEEEEEEEEEEEEEEEEEEEEEE",
"EEEEEEEEEEEEEEEEEEEEEEEEEEEEEEEEEEEEEEEEEEEEEEEEEE",
"EEEEEEEEEEEEEEEEEEEEEEEEEEEEEEEEEEEEEEEEEEEEEEEEEE",
"EEEEEEEEEEEEEEEEEEEEEEEEEEEEEEEEEEEEEEEEEEEEEEEEEE",
"EEEEEEEEEEEEEEEEEEEEEEEEEEEEEEEEEEEEEEEEEEEEEEEEEE",
"EEEEEEEEEEEEEEEEEEEEEEEEEEEEEEEEEEEEEEEEEEEEEEEEEE",
"EEEEEEEEEEEEEEEEEEEEEEEEEEEEEEEEEEEEEEEEEEEEEEEEEE",
"EEEEEEEEEEEEEEEEEEEEEEEEEEEEEEEEEEEEEEEEEEEEEEEEEE",
"EEEEEEEEEEEEEEEEEEEEEEEEEEEEEEEEEEEEEEEEEEEEEEEEEE",
"EEEEEEEEEEEEEETERREEEEEEEEEEEEEEEEEEEEEEEEEEEEEEEE",
"EEEEEEEEEEEEEEETTTEEEEEEEEEEEEEEEEEEEEEEEEEEEEEEEE",
"EEEEEEEEEEEEEEEEREEEEEEEEEEEEEEEEEEEEEEEEEEEEEEEEE",
"EEEEEEEEEEEEEEEEEEEEEEEEEEEEEEEEEEEEEEEEEEEEEEEEEE",
"EEEEEEEEEEEE-&vUAq%;-EEEEEEEEEEEEEEEEEEEEEEEEEEEEE",
"EEEEEEEEE---=-164>=-=----EEEEEEEEEEEEEEEEEEEEEEEEE",
"EEEEEEE--===--&%%=-=-====-=EEEEEEEEEEEEEEEEEEEEEEE",
"EEEEEE-==----=----=-=-----=--EEEEEEEEEEEEEEEEEEEEE",
"EEEEE-=--==-----------=--=-==-EEEEEEEEEEEEEEEEEEEE",
"EEEE----------------------=--=-EEEEEEEEEEEEEEEEEEE",
"EEE--=-=------------------------EEEEEEEEEEEEEEEEEE",
"EE--===---------------------=---=EEEEEEEEEEEEEEEEE",
"EE------------------------------=EEEEEEEEEEEEEEEEE",
"E---==------------------------=-=-EEEEEEEEEEEEEEEE",
"E=-------------------------------=EEEEEEEEEEEEEEEE",
"E-==-------------------------------EEEEEEEEEEEEEEE",
"-=--=-;-=--------------------------EEEEEEEEEEEEEEE",
"-=-=-$+$-=---------------------===-EEEEEEEEEEEEEEE",
"-==-$ect$-=---------------------=--EEEEEEEEEEEEEEE",
"=--%8gXMp#;----------------------==EEEEEE=EEEEEEEE",
"=--+jO .b+;-----------------------=EEEEE-=-=EE---E",
"-=-&4zoay$-----------------------=--EEEEE==-=====-",
"-==-%5kr$-=------------------------=EEEEEE=-=-=EEE",
"-=-=-&+$-==-----=--=--------------=-EEEEEE-=-=EEEE",
"E---=-;--=-=---=-==-=--------------=EEEEEE=-=-EEEE",
"E------*&:=-----=--=---------------=--EE--=---EEEE",
"E-&&&&%;y7&-----=--=-----=--------=-==--==-=-EEEEE",
"EE71<3ry7=-=*&%&-==-*%*=-;---=-----=--==--=--EEEEE",
"EEEuie<-@@%;,4w4&;-=19,;%@%=---=--=--=--=---EEEEEE",
"EEEE#&%=0fmVFGKS2#;;-sDVmdq;#$=-==--=-==-=EEEEEEEE",
"EEEEEE8NKUUPLKJIB3$%-hPPUUKZne;=--===-=EEEEEEEEEEE",
"EEEEEEEEEGHHJJJHIDxlCUJJHHJPYGeEEEEEEEEEEEEEEEEEEE",
"EEEEEEEEEEEEEEEEEEEEEEEEEEEEEEEEEEEEEEEEEEEEEEEEEE",
"EEEEEEEEEEEEEEEEEEEEEEEEEEEEEEEEEEEEEEEEEEEEEEEEEE",
"EEEEEEEEEEEEEEEEEEEEEEEEEEEEEEEEEEEEEEEEEEEEEEEEEE",
"EEEEEEEEEEEEEEEEEEEEEEEEEEEEEEEEEEEEEEEEEEEEEEEEEE",
"EEEEEEEEEEEEEEEEEEEEEEEEEEEEEEEEEEEEEEEEEEEEEEEEEE",
"EEEEEEEEEEEEEEEEEEEEEEEEEEEEEEEEEEEEEEEEEEEEEEEEEE"
};
