/* XPM */
static char *result[] = {
/* columns rows colors chars-per-pixel */
"50 50 191 2 ",
"   c #46423F",
".  c #49453D",
"X  c #4B463E",
"o  c #524D3B",
"O  c #534E3B",
"+  c #56513B",
"@  c #5B5539",
"#  c #5D5638",
"$  c #7A702E",
"%  c #7B712F",
"&  c #696134",
"*  c #6A6337",
"=  c #756C3E",
"-  c #79703D",
";  c #11144F",
":  c #13154F",
">  c #13164E",
",  c #15174D",
"<  c #14174E",
"1  c #15174E",
"2  c #16184D",
"3  c #16194D",
"4  c #17194D",
"5  c #1C1D4B",
"6  c #1D1F4B",
"7  c #1E1F4A",
"8  c #1E1F4B",
"9  c #191B4C",
"0  c #181A4D",
"q  c #191A4D",
"w  c #191B4D",
"e  c #1B1C4C",
"r  c #1B1D4C",
"t  c #1C1D4C",
"y  c #1C1E4C",
"u  c #141653",
"i  c #1C1E50",
"p  c #1F204A",
"a  c #1F214A",
"s  c #1E204B",
"d  c #1F204B",
"f  c #1F214B",
"g  c #1F204C",
"h  c #1F214C",
"j  c #2C2C46",
"k  c #2E2D46",
"l  c #222249",
"z  c #222349",
"x  c #20204A",
"c  c #20214A",
"v  c #20204B",
"b  c #20214B",
"n  c #21224A",
"m  c #22224A",
"M  c #22234A",
"N  c #232449",
"B  c #252649",
"V  c #20214C",
"C  c #20214D",
"Z  c #20214E",
"A  c #21224E",
"S  c #21224F",
"D  c #22234E",
"F  c #23244E",
"G  c #24254E",
"H  c #282848",
"J  c #292848",
"K  c #312F45",
"L  c #373547",
"P  c #383643",
"I  c #21235F",
"U  c #21245F",
"Y  c #22245F",
"T  c #22255F",
"R  c #23255F",
"E  c #23265E",
"W  c #25275D",
"Q  c #26275D",
"!  c #24265E",
"~  c #24275E",
"^  c #25275E",
"/  c #26275E",
"(  c #25285D",
")  c #26285D",
"_  c #27285D",
"`  c #27295D",
"'  c #25285E",
"]  c #26285E",
"[  c #2E2F5A",
"{  c #28295D",
"}  c #282A5C",
"|  c #292A5C",
" . c #292B5C",
".. c #282A5D",
"X. c #2A2B5C",
"o. c #2F305A",
"O. c #383856",
"+. c #3F3D54",
"@. c #313259",
"#. c #333358",
"$. c #161A63",
"%. c #171B63",
"&. c #161A64",
"*. c #1B1F61",
"=. c #191D62",
"-. c #181C63",
";. c #1A1E62",
":. c #1B1E62",
">. c #1C1F61",
",. c #1C2061",
"<. c #1D2061",
"1. c #1E2160",
"2. c #1E2161",
"3. c #1F2260",
"4. c #202360",
"5. c #434040",
"6. c #4E4B4D",
"7. c #4E4A4E",
"8. c #504C4D",
"9. c #58534A",
"0. c #595449",
"q. c #5D5848",
"w. c #424052",
"e. c #464351",
"r. c #605A46",
"t. c #625B46",
"y. c #635C45",
"u. c #6D6541",
"i. c #84792B",
"p. c #8A7E2A",
"a. c #897D36",
"s. c #867B38",
"d. c #AE9D1F",
"f. c #BCAA1A",
"g. c #918527",
"h. c #948727",
"j. c #9A8C25",
"k. c #948632",
"l. c #A19223",
"z. c #A29322",
"x. c #A49521",
"c. c #A99920",
"v. c #A5962B",
"b. c #A6972B",
"n. c #AB9B29",
"m. c #AA9A2A",
"M. c #AD9D29",
"N. c #B6A425",
"B. c #BBA823",
"V. c #BCA923",
"C. c #BEAB22",
"Z. c #C1AE18",
"A. c #C5B117",
"S. c #C5B216",
"D. c #C7B317",
"F. c #CAB615",
"G. c #CBB715",
"H. c #C9B516",
"J. c #CDB914",
"K. c #D0BB13",
"L. c #D3BE12",
"P. c #D3BE13",
"I. c #D4BF12",
"U. c #D3BD1A",
"Y. c #D4BE19",
"T. c #DAC50F",
"R. c #DDC70F",
"E. c #D5C011",
"W. c #D8C211",
"Q. c #D8C311",
"!. c #DAC410",
"~. c #DEC715",
"^. c #D8C118",
"/. c #EED50F",
"(. c #F6DB0C",
"). c #F6DC0C",
"_. c #F7DC0C",
"`. c #F9DD0B",
"'. c #FADE0B",
"]. c #E6CE12",
"[. c #E7CE12",
"{. c #FFE906",
"}. c #FFE807",
"|. c #FFED04",
" X c #FCE10A",
".X c #FEE20A",
"XX c #FFE408",
"oX c #FFE508",
"OX c #FFF103",
"+X c #FFF401",
"@X c None",
/* pixels */
"@X@X@X@X@X@X@X@X@X@X@X@X@X@X@X@X@X@X@X@X@X@X@X@X@X@X@X@X@X@X@X@X@X@X@X@X@X@X@X@X@X@X@X@X@X@X@X@X@X@X",
"@X@X@X@X@X@X@X@X@X@X@X@X@X@X@X@X@X@X@X@X@X@X@X@X@X@X@X@X@X@X@X@X@X@X@X@X@X@X@X@X@X@X@X@X@X@X@X@X@X@X",
"@X@X@X@X@X@X@X@X@X@X@X@X@X@X@X@X@X@X@X@X@X@X@X@X@X@X@X@X@X@X@X@X@X@X@X@X@X@X@X@X@X@X@X@X@X@X@X@X@X@X",
"@X@X@X@X@X@X@X@X@X@X@X@X@X@X@X@X@X@X@X@X@X@X@X@X@X@X@X@X@X@X@X@X@X@X@X@X@X@X@X@X@X@X@X@X@X@X@X@X@X@X",
"@X@X@X@X@X@X@X@X@X@X@X@X@X@X@X@X@X@X@X@XV V v p S W ^ W W W @X@X@X@X@X@X@X@X@X@X@X@X@X@X@X@X@X@X@X@X",
"@X@X@X@X@X@X@X@X@X@X@X@X@X@X@X@X@X@XV v p p b p S W ] W ] ] W W @X@X@X@X@X@X@X@X@X@X@X@X@X@X@X@X@X@X",
"@X@X@X@X@X@X@X@X@X@X@X@X@X@X@X@XV b p a b b b p S W ] W W W ] ] ^ @X@X@X@X@X@X@X@X@X@X@X@X@X@X@X@X@X",
"@X@X@X@X@X@X@X@X@X@X@X@X@X@X@XV c p b v f a b p A W ] W ^ ) W W ) W W @X@X@X@X@X@X@X@X@X@X@X@X@X@X@X",
"@X@X@X@X@X@X@X@X@X@X@X@X@X@Xb p d b p b b b b p A W ] W ] ^ ^ ] W / ) W @X@X@X@X@X@X@X@X@X@X@X@X@X@X",
"@X@X@X@X@X@X@X@X@X@X@X@X@XV p b b p b b b b b p S W ] W ] ] ] W ] W ] W W @X@X@X@X@X@X@X@X@X@X@X@X@X",
"@X@X@X@X@X@X@X@X@X@X@X@XZ x a b x b b b b b b p S W ] W ] ] ] ] W ] W ] W @X@X@X@X@X@X@X@X@X@X@X@X@X",
"@X@X@X@X@X@X@X@X@X@X@X@Xf p b p b b b b b b b p S W ] W ] ] ] ] ] W ] ^ Q W @X@X@X@X@X@X@X@X@X@X@X@X",
"@X@X@X@X@X@X@X@X@X@X@XV p c c d c b b b b b b p S W ] W ] ] ] ] ] ) ^ ) ) ( @X@X@X@X@X@X@X@X@X@X@X@X",
"@X@X@X@X@X@X@X@X@X@X@Xv c 8 n n c d c c b b b p S W ] W ] ] ) ) ^ ) ` { ~ ) W @X@X@X@X@X@X@X@X@X@X@X",
"@X@X@X@X@X@X@X@X@X@XV b d N 0 q n n c d c c b p A W ] W ) ) ^ ) { ..<.>. .^ ) @X@X@X@X@X@X@X@X@X@X@X",
"@X@X@X@X@X@X@X@X@X@XV z > & h.P 4 0 n m c c b p S W ] W ^ ) ..` <.;.e.v.q.*.` @X@X@X@X@X@X@X@X@X@X@X",
"@X@X@X@X@X@X@X@X@X@XV m 3 O !.F.g.5.w 4 c M b p S W ' ) } ` *.<.8.n.(.XXw.3.` W @X@X@X@X@X@X@X@X@X@X",
"@X@X@X@X@X@X@X@X@X@Xa c y k Z.G.I.J.j.X r 2 d p S W ) ^ ;.4.0.N.`.oX X^.X.! ) W @X@X@X@X@X@X@X@X@X@X",
"@X@X@X@X@X@X@X@X@X@Xx c 8 N f.R.J.J.L.J.z.O b p S ) ' ` t.C.'.}. X.X+XB.4._ ) W @X@X@X@X@X@X@X@X@X@X",
"@X@X@X@X@X@X@X@X@X@Xb c c 6 o i.d.S.K.W.T.Q.+ 2 F } =.u.|.OX{._.].V.k.6.U _ ] W @X@X@X@X@X@X@X@X@X@X",
"@X@X@X@X@X@X@X@X@X@Xf d d c 2 < m K # $ l.H.@ , F } -.= [.M.s.9.@.Y &.1.) ^ ] W @X@X@X@X@X@X@X@X@X@X",
"@X@X@X@X@X@X@X@X@X@Xf c c d m M s t 1 : d j H 7 S ) ! o.[ 2.&.,.T )  .` ^ ) ] W @X@X@X@X@X@X@X@X@X@X",
"@X@X@X@X@X@X@X@X@X@Xf d x c d c c c M M p y 8 c S W ) E R `  .{ ) ) ) ^ ) W ] W @X@X@X@X@X@X@X@X@X@X",
"@X@X@X@X@X@X@X@X@X@Xf d x b b b b c d c c c b p S W ^ ) ) ) ) ^ ) ] ] ] ] W ] W @X@X@X@X@X@X@X@X@X@X",
"@X@X@X@X@X@X@X@X@X@Xf d x b b b b b b b b b b p S W ] W ] ] ] ] ] ] ] ] ] W ] W @X@X@X@X@X@X@X@X@X@X",
"@X@X@X@X@X@X@X@X@X@Xf d x b b b b b b b b b b p S W ] W ] ] ] ] ] ] ] ] ] W ] W @X@X@X@X@X@X@X@X@X@X",
"@X@X@X@X@X@X@X@X@X@Xf d x b b b b b b b b b b p S W ] W ] ] ] ] ] ] ] ] ] W ] W @X@X@X@X@X@X@X@X@X@X",
"@X@X@X@X@X@X@X@X@X@Xf d x b b b b b b b b b b p S W ] W ] ] ] ] ] ] ] ] ] W ] W @X@X@X@X@X@X@X@X@X@X",
"@X@X@X@X@X@X@X@X@X@Xf d x b b b b b b b b c b p D ) ^ Q ) ] ] ] ] ] ] ] ] W ] W @X@X@X@X@X@X@X@X@X@X",
"@X@X@X@X@X@X@X@X@X@Xf d x b b b b b b b c d f l i T ..^ ) ) ] ] ] ] ] ] ] W ] W @X@X@X@X@X@X@X@X@X@X",
"@X@X@X@X@X@X@X@X@X@Xf d x b b b b b c c d c M > L #.;.| ) ^ ) ] ] ] ] ] ] W ] W @X@X@X@X@X@X@X@X@X@X",
"@X@X@X@X@X@X@X@X@X@Xf d x b b b b c c d n c ; O P.~.7.%.} ) ^ ) ) ] ] ] ] W ] W @X@X@X@X@X@X@X@X@X@X",
"@X@X@X@X@X@X@X@X@X@Xf d x b b b c c d M 5 0 % E.* a.).- &.^ ` ^ ) ] ] ] ] W ] W @X@X@X@X@X@X@X@X@X@X",
"@X@X@X@X@X@X@X@X@X@Xf d x b b b d d n 4 B x.D.. u $.r./.b.3.1.` ^ ] ] ] ] W ] W @X@X@X@X@X@X@X@X@X@X",
"@X@X@X@X@X@X@X@X@X@Xf d x b b b c n 9   A.c.J 2 G | =.O.Y.U.+.U ` ] ] ] ] W ] W @X@X@X@X@X@X@X@X@X@X",
"@X@X@X@X@X@X@X@X@X@Xf d x b b b c n 1 & p.4 e z S W | 3.I m.y.;.{ ] ] ] ] W ] W @X@X@X@X@X@X@X@X@X@X",
"@X@X@X@X@X@X@X@X@X@Xf d x b b b d d c t 4 d n p S W ^ { ! :.U ) ^ ] ] ] ] W ] W @X@X@X@X@X@X@X@X@X@X",
"@X@X@X@X@X@X@X@X@X@Xf d x b b b c c b c n c d p S W ] ^ ) ` ) ^ ) ) W ] W W ] W @X@X@X@X@X@X@X@X@X@X",
"@X@X@X@X@X@X@X@X@X@Xb p b b d c b c d c c d b p S W ] W ^ ) ) ^ ) ^ ] W ] W ] W @X@X@X@X@X@X@X@X@X@X",
"@X@X@X@X@X@X@X@X@X@Xp b p p c d p b p p b d b p S W ] W ) ^ ) ) ^ ] W / W W ] W @X@X@X@X@X@X@X@X@X@X",
"@X@X@X@X@X@X@X@X@X@Xb p b V d c f p b g p b b p C W ] W W ] W W ] W W ] W W ] W @X@X@X@X@X@X@X@X@X@X",
"@X@X@X@X@X@X@X@X@X@Xb p V @Xh p b p V @Xd a v b h @XW ] ' ( @X@XW / ) W @X^ / W @X@X@X@X@X@X@X@X@X@X",
"@X@X@X@X@X@X@X@X@X@Xp b @X@X@Xb p b @X@XC b p v @X@XW ' ] W @X@XW ] ' W @X@XW W @X@X@X@X@X@X@X@X@X@X",
"@X@X@X@X@X@X@X@X@X@Xp V @X@X@XV p C @X@X@Xb b @X@X@X@X/ W @X@X@X@X( W @X@X@XW W @X@X@X@X@X@X@X@X@X@X",
"@X@X@X@X@X@X@X@X@X@Xf @X@X@X@X@XV @X@X@X@X@XC @X@X@X@X^ W @X@X@X@XW @X@X@X@X@XW @X@X@X@X@X@X@X@X@X@X",
"@X@X@X@X@X@X@X@X@X@XC @X@X@X@X@X@X@X@X@X@X@X@X@X@X@X@X@X@X@X@X@X@X@X@X@X@X@X@X@X@X@X@X@X@X@X@X@X@X@X",
"@X@X@X@X@X@X@X@X@X@X@X@X@X@X@X@X@X@X@X@X@X@X@X@X@X@X@X@X@X@X@X@X@X@X@X@X@X@X@X@X@X@X@X@X@X@X@X@X@X@X",
"@X@X@X@X@X@X@X@X@X@X@X@X@X@X@X@X@X@X@X@X@X@X@X@X@X@X@X@X@X@X@X@X@X@X@X@X@X@X@X@X@X@X@X@X@X@X@X@X@X@X",
"@X@X@X@X@X@X@X@X@X@X@X@X@X@X@X@X@X@X@X@X@X@X@X@X@X@X@X@X@X@X@X@X@X@X@X@X@X@X@X@X@X@X@X@X@X@X@X@X@X@X",
"@X@X@X@X@X@X@X@X@X@X@X@X@X@X@X@X@X@X@X@X@X@X@X@X@X@X@X@X@X@X@X@X@X@X@X@X@X@X@X@X@X@X@X@X@X@X@X@X@X@X"
};
