/* XPM */
static char *result[] = {
/* columns rows colors chars-per-pixel */
"50 50 64 1 ",
"  c #34B4FF",
". c #35B5FF",
"X c #36B5FF",
"o c #37B5FF",
"O c #37B6FF",
"+ c #38B5FF",
"@ c #38B6FF",
"# c #39B6FF",
"$ c #3AB7FF",
"% c #3BB7FF",
"& c #3CB7FF",
"* c #3DB7FF",
"= c #3DB8FF",
"- c #3EB8FF",
"; c #3FB8FF",
": c #40B8FF",
"> c #40B9FF",
", c #41B9FF",
"< c #42B9FF",
"1 c #42BAFF",
"2 c #43BAFF",
"3 c #44BAFF",
"4 c #45BAFF",
"5 c #45BBFF",
"6 c #46BBFF",
"7 c #47BBFF",
"8 c #48BCFF",
"9 c #49BCFF",
"0 c #4ABCFF",
"q c #4BBDFF",
"w c #4CBDFF",
"e c #4FBEFF",
"r c #51BEFF",
"t c #51BFFF",
"y c #52BFFF",
"u c #53C0FF",
"i c #54C0FF",
"p c #55C0FF",
"a c #55C1FF",
"s c #56C0FF",
"d c #56C1FF",
"f c #57C1FF",
"g c #59C1FF",
"h c #58C2FF",
"j c #59C2FF",
"k c #5AC2FF",
"l c #5BC3FF",
"z c #5CC3FF",
"x c #5DC3FF",
"c c #5FC3FF",
"v c #5DC4FF",
"b c #5FC4FF",
"n c #60C4FF",
"m c #60C5FF",
"M c #62C4FF",
"N c #62C5FF",
"B c #63C5FF",
"V c #66C6FF",
"C c #67C6FF",
"Z c #68C7FF",
"A c #69C7FF",
"S c #6AC7FF",
"D c #6BC8FF",
"F c #6CC8FF",
/* pixels */
"@@@@@@@@@@@@@@@@@@@@@@@@@@@@@@@@@@@@@@@@@@@@@@@@@@",
"@@@@@@@@@@@@@@@@@@@@@@@@@@@@@@@@@@@@@@@@@@@@@@@@@@",
"@@@@@@@@@@@@@@@@@@@@@@@@@@@@@@@@@@@@@@@@@@@@@@@@@@",
"@@@@@@@@@@@@@@@@@@@@@@@@@@@@@@@@@@@@@@@@@@@@@@@@@@",
"@@@@@@@@@@@@@@@@@@@@@@@@@@@@@@@@@@@@@@@@@@@@@@@@@@",
"@@@@@@@@@@@@@@@@@@@@@@@@@@@@@@@@@@@@@@@@@@@@@@@@@@",
"@@@@@@@@@@@@@@@@@@@@@@@@@@@@@@@@@@@@@@@@@@@@@@@@@@",
"@@@@@@@@@@@@@@@@@@@@@@@@@@@@@@@@@@@@@@@@@@@@@@@@@@",
"@@@@@@@@@@@@@@@@@@@@@@@@@@@@@@@@@@@@@@@@@@@@@@@@@@",
"@@@@@@@@@@@@@@@@@@@@@@@@@@@@@@@@@@@@@@@@@@@@@@@@@@",
"@@@@@@@@@@@@@@@@@@@@@@@@@@@@@@@@@@@@@@@@@@@@@@@@@@",
"@@@@@@@@o@@@@o@@@@@@@@@@@@@@@@@@@@@@@@@@@@@@@@@@@@",
"@@@@@@oo@X.o@@@o@@@@@@@@@@@@@@@@@@@@@@@@@@@@@@@@@@",
"@@@@@@@@o>3%..@@o@@@@@@@@@@@@@@@@@@@@@@@@@@@@@@@@@",
"@@@@@@@@.sFNp<.o@o@@@@@@@@@@@@@@@@@@@@@@@@@@@@@@@@",
"@@@@@@o@X*BDSZi%.@o@@@@@@@@@@@@@@@@@@@@@@@@@@@@@@@",
"@@@@@@@o@X-nACDN<.@o@@@@@@@@@@@@@@@@@@@@@@@@@@@@@@",
"@@@@@@@@o@.&nSVAV2.@o@@@@@@@@@@@@@@@@@@@@@@@@@@@@@",
"@@@@@@@@@o@X&nSVAB&X@o@@@@@@@@@@@@@@@@@@@@@@@@@@@@",
"@@@@@@@@@@o@X&MAVDr @@@@@@@@@@@@@@@@@@@@@@@@@@@@@@",
"@@@@@@@@@@@o@ 4ACSko@@@@@@@@@@@@@@@@@@@@@@@@@@@@@@",
"@@@@@@@@@@@@@@+cASgX@@@@@@@@@@@@@@@@@@@@@@@@@@@@@@",
"@@@@@@@@@@@@@@ rSS0.@@@@@@o@@o@@@@@@@@@@@@@@@@@@@@",
"@@@@@@@@@@@@o@.4FsX@@o@@@@O@o@o@@@@@@@@@@@@@@@@@@@",
"@@@@@@@@@@@@@@o#9#o@o@@@@o@ooo@o@@@@@@@@@@@@@@@@@@",
"@@@@@@@@@@@@@o@o o@o@@@@@@.5y@@@o@@@@@@@@@@@@@@@@@",
"@@@@@@@@@@@@@@o@@@o@@@@@@@X;7X.o@o@@@@@@@@@@@@@@@@",
"@@@@@@@@@@@@@@@@@@@@@@@@@o@X 3q#o@@@@@@@@@@@@@@@@@",
"@@@@@@@@@@@@@@@@@@@@@@@@@@@@@dm:X@@@@@@@@@@@@@@@@@",
"@@@@@@@@@@@@@@@@@@@@@@@@@@@@X>6@@@@@@@@@@@@@@@@@@@",
"@@@@@@@@@@@@@@@@@@@@@@@@@@oo@X.Xo@o@@@@@@@@@@@@@@@",
"@@@@@@@@@@@@@@@@@@@@@@@@@@@@o@o>&X@o@@@@@@@@@@@@@@",
"@@@@@@@@@@@@@@@@@@@@@@@@@@@@@@.7f$X@o@@@@@@@@@@@@@",
"@@@@@@@@@@@@@@@@@@@@@@@@@@@@@@o#ja$X@o@@@@@@@@@@@@",
"@@@@@@@@@@@@@@@@@@@@@@@@@@@@@@@.0bi#X@o@@@@@@@@@@@",
"@@@@@@@@@@@@@@@@@@@@@@@@@@@@@o@X&jxi%X@@o@@@@@@@@@",
"@@@@@@@@@@@@@@@@@@@@@@@@@@@@@@o@.0zzd-.o@@@@@o@@@@",
"@@@@@@@@@@@@@@@@@@@@@@@@@@@@@@@@o#pllk7@.Xo@@@@@o@",
"@@@@@@@@@@@@@@@@@@@@@@@@@@@@@@@o@X;klkxp8*@X..X@@o",
"@@@@@@@@@@@@@@@@@@@@@@@@@@@@@@@@o@.1lljzxkpe06-Xo@",
"@@@@@@@@@@@@@@@@@@@@@@@@@@@@@@@@@o@X,hxkklzzvzlwoO",
"@@@@@@@@@@@@@@@@@@@@@@@@@@@@@@@@@oo@X&tzzkkkkkll=X",
"@@@@@@@@@@@@@@@@@@@@@@@@@@@@@@@@@@oo@Xo2uzxzllzk&o",
"@@@@@@@@@@@@@@@@@@@@@@@@@@@@@@@@@@@@o@@.o,quhhu3o@",
"@@@@@@@@@@@@@@@@@@@@@@@@@@@@@@@@@@@@@o@@@X.@##oX@@",
"@@@@@@@@@@@@@@@@@@@@@@@@@@@@@@@@@@@@@@@o@@@oooO@@o",
"@@@@@@@@@@@@@@@@@@@@@@@@@@@@@@@@@@@@@@@@@o@@@@@@o@",
"@@@@@@@@@@@@@@@@@@@@@@@@@@@@@@@@@@@@@@@@@@@@@@@@@@",
"@@@@@@@@@@@@@@@@@@@@@@@@@@@@@@@@@@@@@@@@@@@@@@@@@@",
"@@@@@@@@@@@@@@@@@@@@@@@@@@@@@@@@@@@@@@@@@@@@@@@@@@"
};
