/* XPM */
static char *result[] = {
/* columns rows colors chars-per-pixel */
"50 50 185 2 ",
"   c #23394D",
".  c #2B3D4C",
"X  c #1F4052",
"o  c #2F404C",
"O  c #3A454B",
"+  c #254859",
"@  c #1F4D6D",
"#  c #2A4D65",
"$  c #305766",
"%  c #3D566A",
"&  c #335E6D",
"*  c #2A5775",
"=  c #3F5C71",
"-  c #34617D",
";  c #3C637D",
":  c #42494C",
">  c #545149",
",  c #725F45",
"<  c #7B6242",
"1  c #585F6C",
"2  c #49606F",
"3  c #406F7C",
"4  c #45737F",
"5  c #6B6C75",
"6  c #656E7C",
"7  c #66707D",
"8  c #69717E",
"9  c #8A693F",
"0  c #9A703D",
"q  c #A8783D",
"w  c #B57D3A",
"e  c #C2853B",
"r  c #CF8B3A",
"t  c #D88D36",
"y  c #A29478",
"u  c #E79B42",
"i  c #EBA046",
"p  c #ECAA56",
"a  c #ECAC5B",
"s  c #DFAB66",
"d  c #D3B67D",
"f  c #E4AF68",
"g  c #E9B26C",
"h  c #F0BB6E",
"j  c #276187",
"k  c #2C6284",
"l  c #2A678E",
"z  c #326587",
"x  c #2B6C95",
"c  c #386E91",
"v  c #2F7099",
"b  c #377195",
"n  c #3C7194",
"m  c #35739B",
"M  c #38759C",
"N  c #1476AF",
"B  c #2C74A1",
"V  c #2C7BAC",
"C  c #377BA5",
"Z  c #377DA9",
"A  c #247EB4",
"S  c #4C7588",
"D  c #54768A",
"F  c #477696",
"G  c #577C95",
"H  c #6D7785",
"J  c #6F7A86",
"K  c #737783",
"L  c #737884",
"P  c #617F95",
"I  c #3480AF",
"U  c #2F84B7",
"Y  c #2482BA",
"T  c #2F88BD",
"R  c #3182B3",
"E  c #3288BC",
"W  c #5A808A",
"Q  c #5E839B",
"!  c #5C8E98",
"~  c #6A8188",
"^  c #628295",
"/  c #66869C",
"(  c #6D8799",
")  c #728494",
"_  c #778C9B",
"`  c #72949A",
"'  c #668DA7",
"]  c #6696A5",
"[  c #7795A0",
"{  c #75B5BC",
"}  c #1D86C3",
"|  c #2789C3",
" . c #2389C6",
".. c #248FCE",
"X. c #2791CF",
"o. c #3294CD",
"O. c #2A96D6",
"+. c #2B9ADC",
"@. c #34A0DF",
"#. c #269EE3",
"$. c #2A9EE3",
"%. c #2DA6EC",
"&. c #2FA9EF",
"*. c #31A4E7",
"=. c #35AAED",
"-. c #2EABF4",
";. c #2EAFF9",
":. c #32ACF3",
">. c #38AEF2",
",. c #38B0F6",
"<. c #37B5FD",
"1. c #38B6FF",
"2. c #36BBFF",
"3. c #3ABBFF",
"4. c #3BC1FF",
"5. c #7DC2C8",
"6. c #86848C",
"7. c #8C848B",
"8. c #998C8F",
"9. c #8F8A92",
"0. c #8C959E",
"q. c #AC9999",
"w. c #B49B99",
"e. c #99A292",
"r. c #A3A894",
"t. c #BCA99B",
"y. c #BFBC99",
"u. c #8998A4",
"i. c #8E9AA4",
"p. c #919BA7",
"a. c #929EAA",
"s. c #87AAA8",
"d. c #98A5A2",
"f. c #94A1AC",
"g. c #9AA6B0",
"h. c #9CACB7",
"j. c #BDA4A3",
"k. c #AABAA9",
"l. c #D9B984",
"z. c #C0A7A5",
"x. c #D0AFAA",
"c. c #D7B2AB",
"v. c #CFB3B1",
"b. c #E2B6AC",
"n. c #EAB9AD",
"m. c #E9BEB5",
"M. c #C6C19B",
"N. c #E1C38B",
"B. c #F6C6BC",
"V. c #F9C5B9",
"C. c #F7C8BE",
"Z. c #F8C9BF",
"A. c #96BBC5",
"S. c #A8B9C1",
"D. c #91C8C9",
"F. c #90CED0",
"G. c #ADC6CA",
"H. c #B7C5CA",
"J. c #A4CDD6",
"K. c #AFD6DD",
"L. c #BBD0D2",
"P. c #B9E1E7",
"I. c #BBE4EB",
"U. c #CFD4D9",
"Y. c #E5CFC9",
"T. c #F6CAC2",
"R. c #FACCC2",
"E. c #FFD1C5",
"W. c #FFD5CA",
"Q. c #FFDACE",
"!. c #CEE1DB",
"~. c #D1E1D6",
"^. c #FBE4DF",
"/. c #C5E4E8",
"(. c #D0E4E4",
"). c #C4EEF4",
"_. c #C8F3F9",
"`. c #EFEAE8",
"'. c #FFE9E4",
"]. c #F0F0EF",
"[. c #F5F4F4",
"{. c #FEF6F4",
"}. c #FFF8F7",
"|. c #F4FDFD",
" X c #FEFEFE",
/* pixels */
"1.1.1.1.1.1.1.1.1.1.1.1.1.1.1.1.1.1.<.1.<.<.3.U ^ S O.4.<.1.<.<.1.1.1.1.1.1.1.1.1.1.1.1.1.1.1.1.1.1.",
"1.1.1.1.1.1.1.1.1.1.1.1.1.1.1.1.1.1.1.<.<.4.Y 0.|.K.; +.3.<.1.1.1.1.1.1.1.1.1.1.1.1.1.1.1.1.1.1.1.1.",
"1.1.1.1.1.1.1.1.1.1.1.1.1.1.1.1.1.1.<.<.3.A u.|.P.I.J.- *.3.<.1.1.<.1.1.1.1.1.1.1.1.1.1.1.1.1.1.1.1.",
"1.1.1.1.1.1.1.1.1.1.1.1.1.1.1.1.<.1.<.4.| _ |.I.I.P._.J.- *.3.,.1.<.<.1.1.1.1.1.1.1.1.1.1.1.1.1.1.1.",
"1.1.1.1.1.1.1.1.1.1.1.1.1.1.<.<.1.<.4.} ) |.I.I.I.I.P.).D.* <.1.<.1.1.1.1.1.1.1.1.1.1.1.1.1.1.1.1.1.",
"1.1.1.1.1.1.1.1.1.1.1.1.1.1.1.1.<.3...H [.).I.I.I.I.I.P.).S.k :.1.<.1.<.1.1.1.1.1.1.1.1.1.1.1.1.1.1.",
"1.1.1.1.1.1.1.1.1.1.1.1.1.1.1.<.3.O.( |.).I.I.I.!.~././.I._.h.l <.1.<.1.1.1.1.1.1.1.1.1.1.1.1.1.1.1.",
"1.1.1.1.1.1.1.1.1.1.1.1.1.1.<.1.=.# ) ( D ^ d.l.g a f y.[ D Q & l 1.1.1.1.1.1.1.1.1.1.1.1.1.1.1.1.1.",
"1.1.1.1.1.1.1.1.1.1.1.1.1.1.1.1.<.:.#.D G.s.f t 0 9 w u y.^ x <.=.<.1.<.1.1.1.1.1.1.1.1.1.1.1.1.1.1.",
"1.1.1.1.1.1.1.1.1.1.1.1.1.1.1.<.1.2.-./ /.y.u , .   : w h s.I 4.1.1.<.1.1.1.1.1.1.1.1.1.1.1.1.1.1.1.",
"1.1.1.1.1.1.1.1.1.1.1.1.1.1.1.<.1.1.-.! (.d e O   .   < a r.V 4.1.1.1.2.1.1.1.1.1.1.1.1.1.1.1.1.1.1.",
"1.1.1.1.1.1.1.1.1.1.1.1.1.1.<.1.,.>.#.W L.d r O   .   < p e.v ;.=.<.1.<.1.1.1.1.1.1.1.1.1.1.1.1.1.1.",
"1.1.1.1.1.1.1.1.1.1.1.1.1.1.<.2.@.* l = ~ y i 9 O o > e s ~ * k k <.1.<.1.1.1.1.1.1.1.2.1.1.1.1.1.1.",
"1.1.1.1.1.1.1.1.1.1.1.1.1.1.1.1.2.v +.' G.~ N.u w q r p r.] U o.R 4.,.1.1.1.1.1.1.1.1.1.1.1.1.1.1.1.",
"1.1.1.1.1.1.1.1.1.1.1.1.1.1.1.1.1.v +.' S.3 A.M.s f N.k.W ! U o.R 2.<.1.1.1.1.1.1.1.1.1.1.1.1.1.1.1.",
"1.1.1.1.1.1.1.1.1.1.1.1.1.1.1.1.1.v $.] H.4 5.D.` { F.{ 4 ] E o.R 2.<.1.1.1.1.1.1.1.1.1.1.1.1.1.1.1.",
"1.1.1.1.1.1.1.1.1.1.1.1.1.1.<.1.*.* k # 2 X & & X + & $ + + @ k j 1.1.1.1.1.1.1.1.1.1.1.1.1.1.1.1.1.",
"1.1.1.1.1.1.1.1.1.1.1.1.1.1.<.1.,.=.* 0.i.a.p.p.f.f.p.i.p.g.J B <.,.1.1.1.1.1.1.1.1.1.1.1.1.1.1.1.1.",
"1.1.1.1.1.1.1.1.1.1.1.1.1.1.1.1.1.,.F  X X X X X X X X X X XU.V 4.<.,.1.1.1.1.1.1.1.1.1.1.1.1.1.1.1.",
"1.1.1.1.1.1.1.1.1.1.1.1.1.1.<.<.1.:.F |. X X X X X|. X X X XU.v 2.1.<.1.1.1.1.1.1.1.1.1.1.1.1.1.1.1.",
"1.1.1.1.1.1.1.1.1.1.1.1.1.1.1.1.1.=.G  X X X X X X X X X X X`.b 1.1.1.1.1.1.1.1.1.1.1.1.1.1.1.1.1.1.",
"1.1.1.1.1.1.1.1.1.1.1.1.1.1.1.<.1.$.(  X X X X X X X X X X X].b 1.1.<.1.1.1.1.1.1.1.1.1.1.1.1.1.1.1.",
"1.1.1.1.1.1.1.1.1.1.1.1.1.1.1.<.4.X.u. X X X X X X X X X X X[.F :.1.1.1.1.1.1.1.1.1.1.1.1.1.1.1.1.1.",
"1.1.2.1.1.1.1.1.1.1.1.1.1.1.1.<.3. .f. X X X X X X X X X X X XF -.1.<.1.1.1.1.1.1.1.1.1.1.1.1.1.1.1.",
"1.1.1.1.1.1.1.1.1.1.1.1.1.1.1.<.4.Y g. X[.{.{.}.}.{.{.{.{.{.}.P %.2.<.1.1.1.1.1.1.1.1.1.1.1.1.1.1.1.",
"1.1.1.1.1.1.1.1.1.1.1.1.1.1.1.1.4.T j.E.C.Z.Z.Z.Z.R.R.Z.C.C.W.6.*.3.1.1.1.1.1.1.1.1.1.1.1.1.1.1.1.1.",
"1.1.1.1.1.1.1.1.1.1.1.1.1.1.1.,.2.R x.E.C.C.C.C.C.C.C.C.C.B.E.7.X.3.<.1.1.1.1.1.1.1.1.1.1.1.1.1.1.1.",
"1.1.1.1.1.1.1.1.1.1.1.1.1.1.1.<.2.I c.R.C.Z.Z.Z.Z.Z.Z.Z.C.C.E.8.X.3.<.1.1.1.1.1.1.1.1.1.1.1.1.1.1.1.",
"1.1.1.1.1.1.1.1.1.1.1.1.1.1.1.1.2.M n.R.C.C.Z.Z.Z.Z.Z.Z.Z.C.E.q.| 4.1.1.1.1.1.1.1.1.1.1.1.1.1.1.1.1.",
"1.1.1.1.1.1.1.1.1.1.1.1.1.1.<.1.2.c n.R.C.C.Z.Z.Z.Z.Z.Z.Z.C.E.j.E 4.<.<.1.1.1.1.1.1.1.1.1.1.1.1.1.1.",
"1.1.1.1.1.1.1.1.1.1.1.1.1.1.1.1.1.F V.R.C.Z.T.Z.Z.T.Z.Z.Z.Z.E.x.R 2.1.1.1.1.1.1.1.1.1.1.1.1.1.1.1.1.",
"1.1.1.1.1.1.1.1.1.1.1.1.1.1.1.1.;.G V.V.B.V.V.V.V.V.V.V.V.V.Z.c.Z 2.<.1.1.1.1.1.1.1.1.1.1.1.1.1.1.1.",
"1.1.1.1.1.1.1.1.1.1.1.1.1.1.1.1.-.G ^.'.^.^.^.^.^.^.'.^.'.^.'.Y.m 2.1.<.1.1.1.1.1.1.1.1.1.1.1.1.1.1.",
"1.1.1.1.1.1.1.1.1.1.1.1.1.1.1.2.%.G  X X X X X X X X X X X X X].b <.1.<.1.1.1.1.1.1.1.1.1.1.1.1.1.1.",
"1.1.1.1.1.1.1.1.1.1.1.1.1.1.1.3.+._  X X X X X X X X X X X X X[.b ,.1.1.1.1.1.1.1.1.1.1.1.1.1.1.1.1.",
"1.1.1.1.1.1.1.1.1.1.1.1.1.1.<.3...i. X|. X X X X X X X X X X X[.F ;.1.1.1.1.1.1.1.1.1.1.1.1.1.1.1.1.",
"1.1.1.1.1.1.1.1.1.1.1.1.1.1.<.3. .g. X X X X X X X X X X X X X XF =.1.3.1.1.1.1.1.1.1.1.1.1.1.1.1.1.",
"1.1.1.1.1.1.1.1.1.1.1.1.1.1.<.4.Y h. X X X X X X X X X X X X X XQ %.1.1.1.1.1.1.1.1.1.1.1.1.1.1.1.1.",
"1.1.1.1.1.1.1.1.1.1.1.1.1.<.<.3.A h. X X X X X X X X X X X X X X_ +.2.1.1.1.1.1.1.1.1.1.1.1.1.1.1.1.",
"1.1.1.1.1.1.1.1.1.1.1.1.1.1.1.4.V H. X}. X X}. X X X X X X}.{. Xi...3.1.1.1.1.1.1.1.1.1.1.1.1.1.1.1.",
"1.1.1.1.1.1.1.1.1.1.1.1.1.1.,.2.C b.E.R.T.R.T.R.T.R.T.R.T.T.T.W.q.X.3.<.1.1.1.1.1.1.1.1.1.1.1.1.1.1.",
"1.1.1.1.1.1.1.1.1.1.1.1.1.<.3.1.b n.R.T.B.T.T.V.C.C.C.C.C.C.V.R.w.| 4.<.1.1.1.1.1.1.1.1.1.1.1.1.1.1.",
"1.1.1.1.1.1.1.1.1.1.1.1.1.<.<.1.n m.R.Z.T.Z.Z.Z.Z.Z.Z.Z.R.C.C.E.z.E 2.1.1.1.1.1.1.1.1.1.1.1.1.1.1.1.",
"1.1.1.1.1.1.1.1.1.1.1.1.1.1.2.,.G V.Z.Z.T.Z.Z.Z.Z.Z.Z.Z.Z.Z.C.E.c.I 2.,.1.1.1.1.1.1.1.1.1.1.1.1.1.1.",
"1.1.1.1.1.1.1.1.1.1.1.1.<.1.1.-./ Z.Z.T.C.C.Z.C.Z.C.C.Z.C.C.C.R.b.C 2.,.1.<.1.1.1.1.1.1.1.1.1.1.1.1.",
"1.1.1.1.1.1.1.1.<.1.1.1.1.1.3.;.) R.V.B.C.B.C.C.C.C.C.C.C.V.C.T.n.m 4.1.3.1.,.1.1.1.1.1.1.1.1.1.1.1.",
"1.1.1.1.1.1.1.<.1.1.1.2.1.=.O.N 6.Q.R.E.E.E.E.E.E.R.E.E.E.E.E.E.V.; } $.>.2.2.1.1.1.1.1.1.1.1.1.1.1.",
"1.1.1.1.1.1.1.1.<.2.,.Y z S 7.8 5 t.w.w.w.w.w.w.w.w.w.w.w.w.w.w.q.1 7.J z x X.1.1.1.1.1.1.1.1.1.1.1.",
"1.1.1.1.1.1.1.1.1.<.c 9.m.R.Q.R.z.j.j.j.j.j.j.j.j.j.j.j.j.j.j.j.j.x.Q.W.T.v.J E 2.1.1.1.1.1.1.1.1.1.",
"1.1.1.1.1.1.1.<.1.&.% L H H 6 6 K L K L L L L L L K L L L K L K L K 6 7 8 L 5 l 1.1.1.1.1.1.1.1.1.1."
};
