/* XPM */
static char *result[] = {
/* columns rows colors chars-per-pixel */
"50 50 207 2 ",
"   c #244D6A",
".  c #3B566B",
"X  c #2A5878",
"o  c #34617D",
"O  c #3C647C",
"+  c #585F6C",
"@  c #6B6C75",
"#  c #656E7C",
"$  c #717F79",
"%  c #FFBD1F",
"&  c #FFAF29",
"*  c #FFB134",
"=  c #FFC819",
"-  c #FFD713",
";  c #FEF500",
":  c #FEF60E",
">  c #FEEC10",
",  c #FFC338",
"<  c #F7AF48",
"1  c #F2B05B",
"2  c #DFAE6C",
"3  c #ECB66E",
"4  c #F8C05E",
"5  c #285F85",
"6  c #2D6284",
"7  c #2A688F",
"8  c #346B8F",
"9  c #2A6C96",
"0  c #3E7495",
"q  c #327198",
"w  c #3C789D",
"e  c #1476AF",
"r  c #2D75A1",
"t  c #2D7DAD",
"y  c #377BA5",
"u  c #247EB4",
"i  c #456A86",
"p  c #4B738D",
"a  c #54768A",
"s  c #4A7B98",
"d  c #537B96",
"f  c #6D7785",
"g  c #737783",
"h  c #737884",
"j  c #3480AF",
"k  c #2582BA",
"l  c #2C83B8",
"z  c #3082B3",
"x  c #3988B5",
"c  c #5F8D96",
"v  c #5C859C",
"b  c #628295",
"n  c #64849B",
"m  c #698899",
"M  c #728494",
"N  c #798C9B",
"B  c #7A909F",
"V  c #4885A7",
"C  c #548FB0",
"Z  c #7895A0",
"A  c #619FBE",
"S  c #7FAEAC",
"D  c #78B7BF",
"F  c #1D86C3",
"G  c #278AC5",
"H  c #248FCD",
"J  c #2791CF",
"K  c #3293CD",
"L  c #2697D9",
"P  c #2C9BDD",
"I  c #34A0DF",
"U  c #2DA3E9",
"Y  c #33A3E4",
"T  c #35AAEE",
"R  c #2EACF4",
"E  c #2EAFF9",
"W  c #33ADF4",
"Q  c #38AEF2",
"!  c #38B0F6",
"~  c #37B5FE",
"^  c #38B6FF",
"/  c #36BBFF",
"(  c #3BBBFF",
")  c #4795C1",
"_  c #4AA8D5",
"`  c #51A6D1",
"'  c #67AACA",
"]  c #77B7D1",
"[  c #4EB9ED",
"{  c #5BBAE5",
"}  c #55BDEB",
"|  c #4CBCF3",
" . c #41B7FA",
".. c #43B9FC",
"X. c #4BBCFB",
"o. c #52BEF4",
"O. c #52BFFA",
"+. c #3CC1FF",
"@. c #42C1FF",
"#. c #4DC3FF",
"$. c #5CC2F5",
"%. c #5DC3F9",
"&. c #59C8FF",
"*. c #63C3EE",
"=. c #7AC9E4",
"-. c #64C5F6",
";. c #6EC9F6",
":. c #64CBFF",
">. c #69C9FA",
",. c #70CBF6",
"<. c #72D0FE",
"1. c #89848B",
"2. c #8F8A92",
"3. c #9C9893",
"4. c #A99998",
"5. c #B49B99",
"6. c #8AA695",
"7. c #96A794",
"8. c #A9A595",
"9. c #BBA89B",
"0. c #BEBC9B",
"q. c #8694A0",
"w. c #8F9BA4",
"e. c #B29EA0",
"r. c #8AACA7",
"t. c #98A5A8",
"y. c #9DADB4",
"u. c #9DB7B9",
"i. c #A6A6A5",
"p. c #BDA4A3",
"a. c #BCAEAA",
"s. c #A9BDBC",
"d. c #D3B481",
"f. c #C3AAA8",
"g. c #D4B2AC",
"h. c #CFB3B1",
"j. c #D0BFB6",
"k. c #E5B8AC",
"l. c #E6BEB4",
"z. c #B5C6AB",
"x. c #B7CABE",
"c. c #C5C99C",
"v. c #EED996",
"b. c #CFCDB3",
"n. c #ECC1B4",
"m. c #F6C7BC",
"M. c #F9C6BA",
"N. c #F7C8BE",
"B. c #F8C9BF",
"V. c #E1DDBE",
"C. c #F4ECA6",
"Z. c #FFF4BF",
"A. c #96BBC5",
"S. c #A6B5C0",
"D. c #84CADB",
"F. c #8BD0DA",
"G. c #B6C9C6",
"H. c #B5CCC7",
"J. c #A4CDD6",
"K. c #AFD9DA",
"L. c #B2E2DE",
"P. c #87CCE3",
"I. c #88D1EB",
"U. c #98D8EA",
"Y. c #86D6F9",
"T. c #97DBF4",
"R. c #A4DBE8",
"E. c #B9E1E7",
"W. c #BBE4EB",
"Q. c #CCD5C3",
"!. c #D1D9C6",
"~. c #DADFC3",
"^. c #D4DCC9",
"/. c #F6CDC1",
"(. c #F9CDC2",
"). c #E5D0CA",
"_. c #F6D1C4",
"`. c #FBD1C5",
"'. c #FCD6CA",
"]. c #FCDACB",
"[. c #FFDAD0",
"{. c #D6E2D3",
"}. c #D4E3D5",
"|. c #E5E7C1",
" X c #FCE8CE",
".X c #FEF3C2",
"XX c #FEFDC5",
"oX c #F8F3CA",
"OX c #FFFACB",
"+X c #E3E5D3",
"@X c #E5EAD5",
"#X c #E6ECD8",
"$X c #FBE4DE",
"%X c #EBF4DD",
"&X c #F4F4D5",
"*X c #C5E5E8",
"=X c #D0E4E2",
"-X c #C8F3F9",
";X c #EDEFE0",
":X c #FFE9E3",
">X c #EDF4E0",
",X c #F6F5E9",
"<X c #FEFDED",
"1X c #F7F7F6",
"2X c #FEFFF2",
"3X c #F4FDFD",
"4X c #FEFEFE",
/* pixels */
"^ ^ ^ ^ ^ ^ ^ ^ ^ ^ ^ ^ ^ ^ ^ ^ ^ ^ ~ ^ ~ ~ / z b p P ( ! ^ ^ ^ ^ ^ ^ ^ ^ ^ ^ ^ ^ ^ ^ ^ ^ ^ ^ ^ ~ ^ ",
"^ ^ ^ ^ ^ ^ ^ ^ ^ ^ ^ ^ ^ ^ ^ ^ ^ ~ ^ ~ ~ ( k w.3XK.O P +.! ^ ^ ~ ^ ^ ^ ^ ^ ^ / ^ ^ ^ ^ ^ ^ ^ ^ ^ ^ ",
"^ ^ ^ ^ ^ ^ ^ ^ ^ ^ ^ ~ ^ ^ ~ ^ ~ ^ ~ ~ +.u q.3XE.W.J.o Y ( ^ ^ ~ ~ ^ ^ ^ ^ ^ ~ ^ ^ ^ ^ ^ ^ ^ ^ ^ ^ ",
"^ ^ ^ ^ ^ ^ ^ ^ / ^ ^ ^ ^ ^ ^ ~ ^ ^ ^ +.G N 3XW.E.E.-XJ.o U / ! ^ ~ ~ ^ ^ ^ ^ ^ ^ ^ ^ ^ ~ ^ ^ ^ ^ ^ ",
"^ ^ ^ ^ ^ ^ ^ ^ ^ ^ ^ ^ ^ ^ ~ ~ ^ ~ +.F M 3XW.W.W.W.E.-XJ.X ! ( ! ^ ^ ~ ^ ^ ^ ^ ^ ^ ^ ^ ^ ^ ^ ^ ^ ^ ",
"^ ^ ^ ^ ^ ^ ^ ^ ^ ^ ^ ^ ^ ^ ~ ^ ~ / H f 3XW.W.W.W.W.E.E.W.A.6 W ^ ~ ^ ^ ^ ^ ^ ^ ~ ^ ~ ^ ^ ^ ^ ^ ~ ^ ",
"^ ^ ^ ^ ^ ^ ^ ^ ~ ^ ^ ^ ^ ^ ^ ~ ( J M 4X-XW.W.*X}.}.*XW.E.-Xu.7 ~ / ~ ^ ^ ^ ^ ^ ^ ^ ^ ^ / ^ ^ ^ / ^ ",
"^ ^ ^ ^ ^ ^ ^ ^ ^ ^ ^ ^ ^ ^ ~ ^ T   M m a b t.d.1 1 2 9.Z a v . 7 ^ ~ ~ ^ ^ ^ ^ ^ ^ ^ ^ ^ ^ ^ ^ ^ ^ ",
"~ ^ ^ ^ ~ ^ ^ ^ ^ ^ ^ ~ ^ ^ ~ ^ ~ ! L a J.r.2 & = - % * 0.c 9 ~ T ~ ^ ~ ^ ^ ^ ^ ^ / ^ ^ ^ ^ ^ ^ ^ ^ ",
"/ ^ ^ ^ ^ ^ ^ ^ ^ ^ ^ ^ ^ ^ ^ ~ ^ / E n =X0.* - ; ; > = 3 r.t / ^ ^ ~ ^ ^ ^ ^ ^ ^ ~ ^ ^ ^ ^ ^ ^ ^ ^ ",
"^ ^ ^ ^ ^ ^ ^ ^ ^ ^ ^ ^ ^ ^ ^ ^ ^ / R c =X2 , > : : : - < 7.t +.^ ^ ~ ^ ^ ^ ^ ^ ^ ^ ^ ^ ^ ^ ^ ~ ^ ^ ",
"^ ^ ^ ^ ^ ^ ^ ^ ^ ^ ^ ^ ^ ^ ^ ^ W Q P v H.V.OXXXOXXXXXC.4 3.r ~ T ~ ^ ~ ^ ^ ^ ^ ^ ^ ^ ^ ^ ~ ^ ^ ^ ^ ",
"^ ^ ^ ^ ^ ^ ^ ^ ~ / ^ ^ ^ ^ ~ / I X 7 . 8.oXOXXXXXXXOXOXv.$ X 6 6 ~ ~ ~ ^ ^ ^ ^ ^ ^ ^ ^ ^ ^ ^ ^ ^ ^ ",
"^ ^ ^ ^ ^ ~ ^ ^ ^ ^ ^ ^ ^ ^ ~ ~ ^ q P c .X@X&XZ..X.XXXoXOX6.k K z +.~ ~ ~ ^ ^ ^ ^ ^ ^ ^ ^ ^ ^ ^ ^ ^ ",
"^ ~ ^ ^ ^ ^ ^ ^ ^ ^ ^ ^ ^ ~ ~ ~ / q P 6.OX{.%X&XoXoX&X&X&Xc.x K z +.~ ~ ^ ^ ^ ^ ^ ^ ^ ^ ^ ^ ^ ^ ^ ^ ",
"^ ^ ^ ^ ^ / ^ ^ ^ ^ ^ ^ ^ ^ ~ ^ ^ 9 I V.,X{.%X>X#X#X%X%X{.V.D J z / ~ ^ ^ ^ ^ ~ ^ ^ ^ ^ ^ ^ ^ ^ ^ ^ ",
"^ ^ ^ ^ ^ ^ ^ ^ ^ ^ ^ ^ ^ ^ ~ / I   6.~.^.!.!.!.!.!.^.Q.b.^.z.O 5 ~ ^ ~ ^ ^ ^ ^ ^ ^ ^ ^ ^ ~ ^ / ^ ^ ",
"^ ^ ^ ^ ^ ^ ^ ^ ^ ^ ^ ^ ^ ^ ~ / ! _ z.#X@X@X+X+X+X+X+X+X#X{.|.S W ~ ^ ~ ^ ^ ^ ^ ^ ^ ^ ^ ^ ^ ^ ^ ^ ^ ",
"^ ~ ~ ^ ^ ^ ^ ^ ^ ^ ^ ^ ^ ^ ^ ^ ~ F.Q.2X<X<X<X<X<X<X<X<X2X2X;Xx.| ^ ^ ~ ~ / ^ ^ ^ ^ ^ ^ ^ ^ ^ ^ ^ ^ ",
"^ ^ ^ ^ ^ ^ ^ ^ ^ ^ ^ ^ ^ ^ ^ E [ K.H.<X<X<X<X<X<X<X<X<X<X<X%XH.D.~ ^ ^ ^ ~ ^ ^ ^ ^ ^ ^ ^ ^ ^ ^ ^ ^ ",
"^ ^ ^ ^ ^ ^ ^ ^ ^ ^ ^ ^ ^ ^ ^ ~ =.K.s.2X2X<X2X2X2X<X<X<X<X2X,XG.L.} ~ ^ ^ ^ ^ ^ ^ ^ ^ ^ ^ ^ ^ ^ ^ ^ ",
"^ ^ ^ ^ ^ ^ ^ ^ ^ ^ ^ ^ ~ ^ ~ [ U.P.s.2X2X2X2X2X<X2X2X2X<X2X,Xs.R.P.~ ^ ^ ^ ^ ^ ^ ^ ^ ^ ^ ^ ^ ^ ^ ^ ",
"^ ^ ~ / ^ ^ ^ ^ ^ ^ ~ ^ ^ ^ ~ =.T.D.x.4X<X2X2X2X2X2X2X2X<X2X,Xu.U.R.} ^ ^ ~ ^ ^ ^ ^ ^ ^ ^ ^ ^ ^ ^ ^ ",
"^ ^ ^ ^ ^ ^ ^ ^ ^ ^ ^ ~ ^ E [ P.<.] b.4X2X2X2X2X2X2X2X2X2X2X<Xu.I.T.F.! ^ ~ ^ ^ ^ ^ ^ ^ ^ ^ ^ ^ ^ ^ ",
"^ ^ ^ ^ ~ ^ ^ ^ ^ ^ ~ ^ ~ ! *.;.<.' x.4X<X,X<X<X2X<X<X,X<X<X<Xy.P.Y.I.} ~ ~ ~ ^ ^ ^ ^ ^ ^ ^ ^ ^ ^ ^ ",
"^ ^ ^ ^ ^ ^ ^ ^ ^ ^ ^ ^ ^ | ;.;.<.' j.].].].].].].'.].].'.'.].i.{ <.>.*.^ ~ ^ ^ ^ ^ ^ ^ ^ ^ ^ ^ ^ ^ ",
"^ ^ ^ ^ ^ ^ ^ ^ ^ ^ ^ ~ ! *.,.;.>.A b.`._._. X_._._.'.`.`._.].4._ >.>.-.} ~ ^ ^ ^ ^ ^ ~ ^ ^ ^ ^ ^ ^ ",
"^ ^ ^ ^ ^ ^ ~ ^ ^ ^ ^ ~ | -.%.O.&.C n.'.B.`.B.B._.(._.`._.`.].i.` :.%.%.o. .~ ^ ~ ~ ^ ^ ^ ^ ^ ^ ~ ^ ",
"^ ^ ~ ^ ^ ^ ^ ~ ~ ^ ~ ^ o.O.O.X.X.v n._.`.B.`.].]._.]._._._.].a.` %.-.%.%.| ^ ^ ^ ~ ^ ^ ^ ~ / ^ ^ ^ ",
"^ ^ ^ ^ ^ ^ ^ / ^ ^ ~  .O.O.X.X.X.V n._.V.B.`.B.B.B.B.B.B._.'.f.) #.X.$.#.$.! / ^ ^ ^ ^ ^ ^ ^ ^ ^ ^ ",
"^ ^ ^ ^ ^ ^ ^ ^ ^ ~ ~ X...X.X.X.( v m.(.B.B.B.B.B.B.B.B.B.B.`.g.x @. ...X.X. .^ ^ ^ ^ ^ ^ ^ ^ ^ ^ ^ ",
"^ ^ ^ ^ ^ ^ ^ ^ ^ ^ ^ ..........! m M.m.N.N.N.N.m.B.B.M.B.M.B.k.V @. ..... . .~ ~ ^ ~ ^ ^ ^ ^ ~ ^ ^ ",
"~ ^ ^ ^ ^ ^ ~ ^ ~ ^  ...........Q m [.$X$X$X$X$X$X$X$X$X$X$X:X).y .. ..... .....^ ^ ^ ~ ^ ^ ^ ~ ~ / ",
"^ ^ ^ ^ ^ ^ ^ ^ ^ ~  . .........T n 4X4X4X4X4X4X4X4X4X4X4X4X4X,X0 (  . . . .....( ~ ^ ^ ^ ^ ^ ^ ^ ^ ",
"^ ^ ^ ^ ^ ^ ^ ~ ^  .(  . .( ( ..P B 4X4X4X4X4X4X4X4X4X4X4X4X4X,Xp ~ ( ^ ^  . .^ ^ ~ ~ ^ ^ ^ ^ ^ ^ ^ ",
"^ ^ ~ ^ ^ ^ ^ ~ ^ ~ ^ ( ^ ( ^ @.H w.4X4X4X4X4X4X4X4X4X4X4X4X4X1Xs Q ( ( ~  .^ ^ ( ~ ^ ^ ^ ^ ^ ^ ^ ^ ",
"^ ^ ^ ^ ^ ^ ^ ~ ^  .^ ( ( ^ ! ..G t.4X1X4X4X4X4X4X4X4X4X4X4X4X4Xs U ( ~ ( ^ ^  .^ ~ ^ ^ ~ ^ ^ ^ ^ ^ ",
"^ ^ ^ ^ ^ ^ ^ ~ ^ ^  .^ ^  .^ ..G y.4X4X4X4X4X4X4X4X4X4X4X4X4X4Xd U  .^ ^ ^ ^ ^ ^ ~ ^ ^ ^ ^ ^ ^ ^ ^ ",
"^ / ^ ^ ^ ^ ^ ~ ^ ^ ~ ^ ^ ^ ^ +.t S.4X4X4X4X4X4X4X4X4X4X4X4X4X4XB P ( ^ ^ ! ~ ^ ^ ^ ^ ^ ^ ~ ^ ^ ^ ~ ",
"^ ~ ^ ^ ^ ^ ^ ^ ^ ~ ~ ^ ^ ^ ^ ( t S.4X4X1X4X4X1X4X4X4X4X4X4X1X4Xw.J ( ~ ^ ^ ^ ^ ^ ~ ^ ^ ^ ~ ( ~ ^ ^ ",
"^ ^ ^ ^ ^ ^ ~ ^ ~ ~ ^ ^ ^ ~ ! ( y k.(.B.B.(.(.B.(.(.(.(.(.(.(.'.4.H ( ^ ^ ^ ^ ~ ^ ^ ~ ^ ^ ^ ^ ^ ^ ^ ",
"^ ^ ^ ~ ^ ^ ^ ^ ~ ^ ^ ~ ^ ^ ~ / s k.B.N.N.N.N.N.(.l.(.l.m.N.m.(.5.G +.! ~ ^ ~ ^ ^ ~ ^ ^ ^ ^ ^ ~ ^ ^ ",
"^ ^ ^ ^ ^ ^ ^ ^ ^ ~ ^ ~ ~ ~ ~ ^ s l.(.N.B.B.B.B.B.B./.(./.m.N.(.f.l / ~ ~ ^ ^ ^ ~ ^ ~ ~ ~ ~ ^ ^ ^ ^ ",
"~ ^ ^ ^ ^ ^ ^ ~ ^ ^ ~ ( ^ ^ ^ E d l.(.N.B.B.B.B.B.B.M.(.m./.(.(.g.j ( ~ ^ ^ ^ ^ ^ ~ ( ~ ^ ( ^ ^ ^ ~ ",
"^ ^ ^ ^ ^ ^ ^ ^ ^ ~ ^ ^ ~ ~ ( T n (.(.N.(.N.M.(.B.(.N.N.B.B.N.(.k.y / ~ ^ ~ ^ ~ ~ ^ ^ ^ ^ ~ ^ ^ ^ ^ ",
"^ ^ ^ ^ ^ ^ ^ ~ ^ ^ ~ ^ ^ ( ( E h (.(.m.m.N.m.N.M.M.N.M.N.B.m.(.k.w +.^ ^ ~ ~ ~ ^ ~ ^ ^ ^ ^ ^ ^ ^ ^ ",
"^ ^ ^ ^ ^ ^ ^ ^ ^ ~ ~ ( ~ T L e 1.'.(.(.(.(.`.`.(.(.(.(.`.(.(.'.M.O F P W ^ ( ~ ~ ^ ~ ^ ~ ^ ^ ^ ^ ^ ",
"^ ^ / ~ ^ ^ ^ ^ ^ ^ ! u 8 i 1.$ @ p.5.5.5.e.5.5.5.5.e.e.5.5.5.5.5.+ 1.f i 9 J ( ^ ~ ~ ~ ( ^ ^ ^ ^ ^ ",
"^ ^ ^ ^ ^ ^ ^ ~ ^ ~ 8 2.l.`.'.(.f.p.p.p.p.p.p.p.p.p.p.p.p.p.p.p.p.g.'.'.(.h.f l ( ^ ^ ^ ^ ^ ^ ^ ^ ~ ",
"^ ^ ^ ^ ^ ^ ^ ~ / T . h f f # # g g g g g g g g h g h g h h h g g f # # f g @ 8 ^ ~ ^ ^ ^ ^ ^ ^ ^ ^ "
};
